# WaveFront *.obj file (generated by Autodesk ATF)

mtllib Doggo Head 1.mtl

g Solid2

v 0.110632 -71.466608 0.000000
v 0.110632 -71.466608 2.500000
v 0.300577 -70.877781 0.000000
v 0.300577 -70.877781 2.500000
v 0.683609 -70.231943 0.000000
v 0.683609 -70.231943 2.500000
v 1.235156 -69.457908 0.000000
v 1.235156 -69.457908 2.500000
v 1.653027 -73.357897 0.000000
v 1.653027 -73.357897 2.500000
v 1.937471 -68.524876 0.000000
v 1.937471 -68.524876 2.500000
v 2.785063 -67.435865 0.000000
v 2.785063 -67.435865 2.500000
v 3.356790 -75.179291 0.000000
v 3.356790 -75.179291 2.500000
v 3.844431 -66.155300 0.000000
v 3.844431 -66.155300 2.500000
v 4.510117 -65.401969 0.000000
v 4.510117 -65.401969 2.500000
v 5.305259 -77.081966 0.000000
v 5.305259 -77.081966 2.500000
v 5.313795 -64.536586 0.000000
v 5.313795 -64.536586 2.500000
v 6.301671 -63.522453 0.000000
v 6.301671 -63.522453 2.500000
v 7.528524 -62.315526 0.000000
v 7.528524 -62.315526 2.500000
v 7.581774 -79.217095 0.000000
v 7.581774 -79.217095 2.500000
v 9.015998 -80.400944 0.000000
v 9.015998 -80.400944 2.500000
v 10.406893 -81.300211 0.000000
v 10.406893 -81.300211 2.500000
v 11.754023 -81.997900 0.000000
v 11.754023 -81.997900 2.500000
v 13.029089 -82.536230 0.000000
v 13.029089 -82.536230 2.500000
v 14.184055 -82.917652 0.000000
v 14.184055 -82.917652 2.500000
v 15.240501 -83.115969 0.000000
v 15.240501 -83.115969 2.500000
v 16.378968 -83.087349 0.000000
v 16.378968 -83.087349 2.500000
v 17.038991 -46.784210 0.000000
v 17.038991 -46.784210 2.500000
v 17.077935 -49.004169 0.000000
v 17.077935 -49.004169 2.500000
v 17.081068 -82.969723 0.000000
v 17.081068 -82.969723 2.500000
v 17.153914 -45.837359 0.000000
v 17.153914 -45.837359 2.500000
v 17.340441 -50.328679 0.000000
v 17.340441 -50.328679 2.500000
v 17.352465 -45.029001 0.000000
v 17.352465 -45.029001 2.500000
v 17.612172 -51.154509 0.000000
v 17.612172 -51.154509 2.500000
v 17.947086 -82.771425 0.000000
v 17.947086 -82.771425 2.500000
v 17.979733 -43.627439 0.000000
v 17.979733 -43.627439 2.500000
v 18.030885 -52.173510 0.000000
v 18.030885 -52.173510 2.500000
v 18.931192 -42.043729 0.000000
v 18.931192 -42.043729 2.500000
v 19.581060 -41.059151 0.000000
v 19.581060 -41.059151 2.500000
v 20.424228 -39.863307 0.000000
v 20.424228 -39.863307 2.500000
v 21.568134 -38.343401 0.000000
v 21.568134 -38.343401 2.500000
v 22.244616 -14.731071 0.000000
v 22.244616 -14.731071 2.500000
v 22.296693 -37.416816 0.000000
v 22.296693 -37.416816 2.500000
v 22.652078 -49.759836 0.000000
v 22.652078 -49.759836 2.500000
v 22.652078 -48.587189 0.000000
v 22.652078 -48.587189 2.500000
v 23.152502 -36.361711 0.000000
v 23.152502 -36.361711 2.500000
v 23.197033 -50.798163 0.000000
v 23.197033 -50.798163 2.500000
v 23.197033 -47.548862 0.000000
v 23.197033 -47.548862 2.500000
v 23.410251 -13.787160 0.000000
v 23.410251 -13.787160 2.500000
v 23.903439 -17.813621 0.000000
v 23.903439 -17.813621 2.500000
v 24.148226 -35.177975 0.000000
v 24.148226 -35.177975 2.500000
v 24.162104 -51.464300 0.000000
v 24.162104 -51.464300 2.500000
v 24.162104 -46.882720 0.000000
v 24.162104 -46.882720 2.500000
v 24.361703 -14.769816 0.000000
v 24.361703 -14.769816 2.500000
v 24.772036 -19.650027 0.000000
v 24.772036 -19.650027 2.500000
v 25.292597 -33.876634 0.000000
v 25.292597 -33.876634 2.500000
v 25.326200 -51.605649 0.000000
v 25.326200 -51.605649 2.500000
v 25.326200 -46.741376 0.000000
v 25.326200 -46.741376 2.500000
v 25.523617 -15.957049 0.000000
v 25.523617 -15.957049 2.500000
v 25.678525 -21.669676 0.000000
v 25.678525 -21.669676 2.500000
v 26.422644 -51.189823 0.000000
v 26.422644 -51.189823 2.500000
v 26.422644 -47.157202 0.000000
v 26.422644 -47.157202 2.500000
v 26.512473 -23.770671 0.000000
v 26.512473 -23.770671 2.500000
v 26.590414 -32.479844 0.000000
v 26.590414 -32.479844 2.500000
v 27.200253 -50.312085 0.000000
v 27.200253 -50.312085 2.500000
v 27.200253 -48.034940 0.000000
v 27.200253 -48.034940 2.500000
v 27.229843 -26.067648 0.000000
v 27.229843 -26.067648 2.500000
v 27.480886 -49.173512 0.000000
v 27.480886 -49.173512 2.500000
v 27.793484 -28.643432 0.000000
v 27.793484 -28.643432 2.500000
v 27.973351 -29.913216 0.000000
v 27.973351 -29.913216 2.500000
v 28.042548 -31.020894 0.000000
v 28.042548 -31.020894 2.500000
v 28.069925 -80.247526 0.000000
v 28.069925 -80.247526 2.500000
v 28.305883 -18.744276 0.000000
v 28.305883 -18.744276 2.500000
v 29.786689 -79.779506 0.000000
v 29.786689 -79.779506 2.500000
v 31.357851 -21.759298 0.000000
v 31.357851 -21.759298 2.500000
v 31.684783 -79.268794 0.000000
v 31.684783 -79.268794 2.500000
v 33.688881 -78.857870 0.000000
v 33.688881 -78.857870 2.500000
v 34.195006 -24.632413 0.000000
v 34.195006 -24.632413 2.500000
v 35.695007 -24.632413 0.000000
v 35.695007 -24.632413 2.500000
v 35.695007 -3.132414 0.000000
v 35.695007 -3.132414 2.500000
v 35.723653 -78.689232 0.000000
v 35.723653 -78.689232 2.500000
v 38.428497 -0.492712 0.000000
v 38.428497 -0.492712 2.500000
v 40.040574 -1.731838 0.000000
v 40.040574 -1.731838 2.500000
v 41.386323 -2.859677 0.000000
v 41.386323 -2.859677 2.500000
v 41.999998 -107.718487 0.000000
v 41.999998 -107.718487 2.500000
v 43.522072 -4.929987 0.000000
v 43.522072 -4.929987 2.500000
v 45.232768 -6.956717 0.000000
v 45.232768 -6.956717 2.500000
v 46.201501 -102.718487 0.000000
v 46.201501 -102.718487 2.500000
v 46.201501 -100.218487 0.000000
v 46.201501 -100.218487 2.500000
v 46.772370 -9.122657 0.000000
v 46.772370 -9.122657 2.500000
v 47.451501 -107.718487 0.000000
v 47.451501 -107.718487 2.500000
v 47.451501 -102.718487 0.000000
v 47.451501 -102.718487 2.500000
v 47.451501 -100.218487 0.000000
v 47.451501 -100.218487 2.500000
v 47.451501 -91.518488 0.000000
v 47.451501 -91.518488 2.500000
v 48.254204 -11.543868 0.000000
v 48.254204 -11.543868 2.500000
v 49.677691 -14.308772 0.000000
v 49.677691 -14.308772 2.500000
v 50.551500 -107.718487 0.000000
v 50.551500 -107.718487 2.500000
v 50.551500 -102.718487 0.000000
v 50.551500 -102.718487 2.500000
v 50.551500 -100.218487 0.000000
v 50.551500 -100.218487 2.500000
v 50.551500 -91.518488 0.000000
v 50.551500 -91.518488 2.500000
v 50.955091 -17.517247 0.000000
v 50.955091 -17.517247 2.500000
v 51.488414 -19.323139 0.000000
v 51.488414 -19.323139 2.500000
v 51.701498 -102.718487 0.000000
v 51.701498 -102.718487 2.500000
v 51.701498 -100.218487 0.000000
v 51.701498 -100.218487 2.500000
v 51.913915 -21.284177 0.000000
v 51.913915 -21.284177 2.500000
v 52.551498 -110.218487 0.000000
v 52.551498 -110.218487 2.500000
v 52.551498 -107.718487 0.000000
v 52.551498 -107.718487 2.500000
v 62.551498 -110.218487 0.000000
v 62.551498 -110.218487 2.500000
v 62.551498 -107.718487 0.000000
v 62.551498 -107.718487 2.500000
v 63.401499 -102.718487 0.000000
v 63.401499 -102.718487 2.500000
v 63.401499 -100.218487 0.000000
v 63.401499 -100.218487 2.500000
v 64.551501 -107.718487 0.000000
v 64.551501 -107.718487 2.500000
v 64.551501 -102.718487 0.000000
v 64.551501 -102.718487 2.500000
v 64.551501 -100.218487 0.000000
v 64.551501 -100.218487 2.500000
v 64.551501 -91.518488 0.000000
v 64.551501 -91.518488 2.500000
v 67.651501 -107.718487 0.000000
v 67.651501 -107.718487 2.500000
v 67.651501 -102.718487 0.000000
v 67.651501 -102.718487 2.500000
v 67.651501 -100.218487 0.000000
v 67.651501 -100.218487 2.500000
v 67.651501 -91.518488 0.000000
v 67.651501 -91.518488 2.500000
v 68.901501 -102.718487 0.000000
v 68.901501 -102.718487 2.500000
v 68.901501 -100.218487 0.000000
v 68.901501 -100.218487 2.500000
v 68.903270 -33.627667 0.000000
v 68.903270 -33.627667 2.500000
v 73.102999 -107.718487 0.000000
v 73.102999 -107.718487 2.500000
v 73.712621 -105.606127 0.000000
v 73.712621 -105.606127 2.500000
v 74.806099 -103.510857 0.000000
v 74.806099 -103.510857 2.500000
v 76.406641 -101.463995 0.000000
v 76.406641 -101.463995 2.500000
v 77.356157 -47.212539 0.000000
v 77.356157 -47.212539 2.500000
v 78.502636 -99.480553 0.000000
v 78.502636 -99.480553 2.500000
v 78.993931 -49.719357 0.000000
v 78.993931 -49.719357 2.500000
v 80.512991 -51.828508 0.000000
v 80.512991 -51.828508 2.500000
v 81.047678 -97.559233 0.000000
v 81.047678 -97.559233 2.500000
v 82.074642 -53.847966 0.000000
v 82.074642 -53.847966 2.500000
v 83.775692 -55.959506 0.000000
v 83.775692 -55.959506 2.500000
v 83.960552 -95.682402 0.000000
v 83.960552 -95.682402 2.500000
v 87.592726 -60.509920 0.000000
v 87.592726 -60.509920 2.500000
v 89.372129 -62.543211 0.000000
v 89.372129 -62.543211 2.500000
v 90.075064 -63.315845 0.000000
v 90.075064 -63.315845 2.500000
v 90.390902 -91.910229 0.000000
v 90.390902 -91.910229 2.500000
v 90.566950 -63.823576 0.000000
v 90.566950 -63.823576 2.500000
v 92.196045 -65.427814 0.000000
v 92.196045 -65.427814 2.500000
v 93.571920 -89.898090 0.000000
v 93.571920 -89.898090 2.500000
v 93.656349 -66.958694 0.000000
v 93.656349 -66.958694 2.500000
v 94.955187 -68.419328 0.000000
v 94.955187 -68.419328 2.500000
v 96.099730 -69.812756 0.000000
v 96.099730 -69.812756 2.500000
v 96.447868 -87.696877 0.000000
v 96.447868 -87.696877 2.500000
v 97.693024 -86.495018 0.000000
v 97.693024 -86.495018 2.500000
v 97.954006 -72.409878 0.000000
v 97.954006 -72.409878 2.500000
v 98.763485 -85.207424 0.000000
v 98.763485 -85.207424 2.500000
v 99.273911 -74.773159 0.000000
v 99.273911 -74.773159 2.500000
v 99.621887 -83.819141 0.000000
v 99.621887 -83.819141 2.500000
v 100.112038 -76.924682 0.000000
v 100.112038 -76.924682 2.500000
v 100.228729 -82.314224 0.000000
v 100.228729 -82.314224 2.500000
v 100.518761 -78.885508 0.000000
v 100.518761 -78.885508 2.500000
v 100.542307 -80.675688 0.000000
v 100.542307 -80.675688 2.500000
vt -0.500000 0.000000 0.000000
vt -0.000000 0.000000 0.000000
vt -0.000000 0.250000 0.000000
vt -0.500000 0.250000 0.000000
vt -0.115000 0.000000 0.000000
vt -0.000000 0.000000 0.000000
vt -0.000000 0.250000 0.000000
vt -0.115000 0.250000 0.000000
vt -0.250000 0.000000 0.000000
vt -0.000000 0.000000 0.000000
vt -0.000000 0.250000 0.000000
vt -0.250000 0.250000 0.000000
vt -0.115000 0.000000 0.000000
vt -0.000000 0.000000 0.000000
vt -0.000000 0.250000 0.000000
vt -0.115000 0.250000 0.000000
vt -0.870000 0.000000 0.000000
vt -0.000000 0.000000 0.000000
vt -0.000000 0.250000 0.000000
vt -0.870000 0.250000 0.000000
vt -0.310000 0.000000 0.000000
vt -0.000000 0.000000 0.000000
vt -0.000000 0.250000 0.000000
vt -0.310000 0.250000 0.000000
vt -0.870000 0.000000 0.000000
vt -0.000000 0.000000 0.000000
vt -0.000000 0.250000 0.000000
vt -0.870000 0.250000 0.000000
vt -0.125000 0.000000 0.000000
vt -0.000000 0.000000 0.000000
vt -0.000000 0.250000 0.000000
vt -0.125000 0.250000 0.000000
vt -0.250000 0.000000 0.000000
vt -0.000000 0.000000 0.000000
vt -0.000000 0.250000 0.000000
vt -0.250000 0.250000 0.000000
vt -0.125000 0.000000 0.000000
vt -0.000000 0.000000 0.000000
vt -0.000000 0.250000 0.000000
vt -0.125000 0.250000 0.000000
vt -0.500000 0.000000 0.000000
vt -0.000000 0.000000 0.000000
vt -0.000000 0.250000 0.000000
vt -0.500000 0.250000 0.000000
vt -0.250000 0.000000 0.000000
vt -0.000000 0.000000 0.000000
vt -0.000000 0.250000 0.000000
vt -0.250000 0.250000 0.000000
vt -0.115000 0.000000 0.000000
vt -0.000000 0.000000 0.000000
vt -0.000000 0.250000 0.000000
vt -0.115000 0.250000 0.000000
vt -0.500000 0.000000 0.000000
vt -0.000000 0.000000 0.000000
vt -0.000000 0.250000 0.000000
vt -0.500000 0.250000 0.000000
vt -0.500000 0.000000 0.000000
vt -0.000000 0.000000 0.000000
vt -0.000000 0.250000 0.000000
vt -0.500000 0.250000 0.000000
vt -0.125000 0.000000 0.000000
vt -0.000000 0.000000 0.000000
vt -0.000000 0.250000 0.000000
vt -0.125000 0.250000 0.000000
vt -0.250000 0.000000 0.000000
vt -0.000000 0.000000 0.000000
vt -0.000000 0.250000 0.000000
vt -0.250000 0.250000 0.000000
vt -0.125000 0.000000 0.000000
vt -0.000000 0.000000 0.000000
vt -0.000000 0.250000 0.000000
vt -0.125000 0.250000 0.000000
vt -0.870000 0.000000 0.000000
vt -0.000000 0.000000 0.000000
vt -0.000000 0.250000 0.000000
vt -0.870000 0.250000 0.000000
vt -0.310000 0.000000 0.000000
vt -0.000000 0.000000 0.000000
vt -0.000000 0.250000 0.000000
vt -0.310000 0.250000 0.000000
vt -0.870000 0.000000 0.000000
vt -0.000000 0.000000 0.000000
vt -0.000000 0.250000 0.000000
vt -0.870000 0.250000 0.000000
vt -0.115000 0.000000 0.000000
vt -0.000000 0.000000 0.000000
vt -0.000000 0.250000 0.000000
vt -0.115000 0.250000 0.000000
vt 0.545150 0.000000 0.000000
vt 0.545150 0.250000 0.000000
vt 0.000000 0.250000 0.000000
vt 0.000000 0.000000 0.000000
vt -0.315812 -4.878558 0.000000
vt -0.315812 -4.378558 0.000000
vt -0.430812 -4.378558 0.000000
vt -0.430812 -4.128558 0.000000
vt -0.315812 -4.128558 0.000000
vt -0.315812 -3.258558 0.000000
vt -0.005812 -3.258558 0.000000
vt -0.005812 -4.128558 0.000000
vt 0.119188 -4.128558 0.000000
vt 0.119188 -4.378558 0.000000
vt -0.005812 -4.378558 0.000000
vt -0.005812 -4.878558 0.000000
vt 0.539338 -4.878558 0.000000
vt 1.166973 -1.975633 0.000000
vt 1.370450 -1.992496 0.000000
vt 1.570860 -2.033589 0.000000
vt 1.760669 -2.084660 0.000000
vt 1.932345 -2.131462 0.000000
vt 2.944629 -2.383852 0.000000
vt 3.031231 -2.403682 0.000000
vt 3.101441 -2.415444 0.000000
vt 3.215288 -2.418306 0.000000
vt 3.320932 -2.398475 0.000000
vt 3.436429 -2.360332 0.000000
vt 3.563936 -2.306499 0.000000
vt 3.698648 -2.236731 0.000000
vt 3.837738 -2.146804 0.000000
vt 3.981160 -2.028419 0.000000
vt 4.208812 -1.814906 0.000000
vt 4.403659 -1.624638 0.000000
vt 4.574035 -1.442499 0.000000
vt 4.728275 -1.253370 0.000000
vt 4.709280 -1.194487 0.000000
vt 4.670977 -1.129904 0.000000
vt 4.615822 -1.052500 0.000000
vt 4.545591 -0.959197 0.000000
vt 4.460832 -0.850296 0.000000
vt 4.354895 -0.722239 0.000000
vt 4.288326 -0.646906 0.000000
vt 4.207958 -0.560368 0.000000
vt 4.109171 -0.458955 0.000000
vt 3.986485 -0.338262 0.000000
vt 2.936249 0.675940 0.000000
vt 2.978121 0.777840 0.000000
vt 3.005294 0.860423 0.000000
vt 3.031544 0.992874 0.000000
vt 3.035439 1.214870 0.000000
vt 3.023947 1.309555 0.000000
vt 3.004091 1.390391 0.000000
vt 2.941365 1.530547 0.000000
vt 2.846219 1.688918 0.000000
vt 2.781232 1.787376 0.000000
vt 2.696915 1.906960 0.000000
vt 2.582525 2.058951 0.000000
vt 2.509669 2.151609 0.000000
vt 2.424088 2.257120 0.000000
vt 2.324515 2.375493 0.000000
vt 2.210078 2.505627 0.000000
vt 2.080297 2.645306 0.000000
vt 1.935083 2.791201 0.000000
vt 1.942003 2.901969 0.000000
vt 1.959989 3.028948 0.000000
vt 2.016354 3.286526 0.000000
vt 2.088091 3.516223 0.000000
vt 2.171485 3.726323 0.000000
vt 2.262134 3.928288 0.000000
vt 2.348994 4.111928 0.000000
vt 2.514876 4.420184 0.000000
vt 2.398313 4.514575 0.000000
vt 2.303168 4.416309 0.000000
vt 2.186976 4.297586 0.000000
vt 1.908750 4.018863 0.000000
vt 1.603553 3.717361 0.000000
vt 1.319837 3.430049 0.000000
vt 1.169837 3.430049 0.000000
vt 1.169837 5.580050 0.000000
vt 0.896488 5.844019 0.000000
vt 0.735281 5.720107 0.000000
vt 0.600706 5.607323 0.000000
vt 0.387131 5.400292 0.000000
vt 0.216061 5.197619 0.000000
vt 0.062101 4.981025 0.000000
vt -0.086083 4.738904 0.000000
vt -0.228431 4.462413 0.000000
vt -0.356171 4.141566 0.000000
vt -0.409503 3.960977 0.000000
vt -0.452053 3.764873 0.000000
vt -2.150989 2.530524 0.000000
vt -2.996278 1.172037 0.000000
vt -3.160055 0.921355 0.000000
vt -3.311961 0.710440 0.000000
vt -3.468127 0.508494 0.000000
vt -3.638232 0.297340 0.000000
vt -4.019934 -0.157701 0.000000
vt -4.197875 -0.361030 0.000000
vt -4.268168 -0.438294 0.000000
vt -4.317357 -0.489067 0.000000
vt -4.480267 -0.649491 0.000000
vt -4.626297 -0.802579 0.000000
vt -4.756181 -0.948642 0.000000
vt -4.870635 -1.087985 0.000000
vt -5.056062 -1.347697 0.000000
vt -5.188054 -1.584025 0.000000
vt -5.271865 -1.799177 0.000000
vt -5.312538 -1.995260 0.000000
vt -5.314893 -2.174278 0.000000
vt -5.283535 -2.338132 0.000000
vt -5.222851 -2.488624 0.000000
vt -5.137010 -2.627451 0.000000
vt -5.029964 -2.756211 0.000000
vt -4.905448 -2.876397 0.000000
vt -4.617855 -3.096519 0.000000
vt -4.299753 -3.297732 0.000000
vt -3.656718 -3.674950 0.000000
vt -3.365430 -3.862632 0.000000
vt -3.110926 -4.054765 0.000000
vt -2.901326 -4.253109 0.000000
vt -2.741272 -4.457795 0.000000
vt -2.631924 -4.667322 0.000000
vt -2.570962 -4.878558 0.000000
vt -2.025812 -4.878558 0.000000
vt -2.025812 -4.378558 0.000000
vt -2.150812 -4.378558 0.000000
vt -2.150812 -4.128558 0.000000
vt -2.025812 -4.128558 0.000000
vt -2.025812 -3.258558 0.000000
vt -1.715812 -3.258558 0.000000
vt -1.715812 -4.128558 0.000000
vt -1.600812 -4.128558 0.000000
vt -1.600812 -4.378558 0.000000
vt -1.715812 -4.378558 0.000000
vt -1.715812 -4.878558 0.000000
vt -1.515812 -4.878558 0.000000
vt -1.515812 -5.128558 0.000000
vt -0.515812 -5.128558 0.000000
vt -0.515812 -4.878558 0.000000
vt 1.991249 0.975940 0.000000
vt 2.019313 1.089797 0.000000
vt 2.097074 1.177571 0.000000
vt 2.206718 1.219153 0.000000
vt 2.323128 1.205019 0.000000
vt 2.419634 1.138405 0.000000
vt 2.474130 1.034572 0.000000
vt 2.474130 0.917307 0.000000
vt 2.419634 0.813475 0.000000
vt 2.323128 0.746861 0.000000
vt 2.206718 0.732726 0.000000
vt 2.097074 0.774309 0.000000
vt 2.019313 0.862082 0.000000
vt 2.255150 0.000000 0.000000
vt 2.255150 0.250000 0.000000
vt 2.055150 0.250000 0.000000
vt 2.055150 0.000000 0.000000
vt 0.000000 0.000000 0.000000
vt 0.250000 0.000000 0.000000
vt 0.250000 0.250000 0.000000
vt 0.000000 0.250000 0.000000
vt 0.000000 0.000000 0.000000
vt 1.000000 0.000000 0.000000
vt 1.000000 0.250000 0.000000
vt 0.000000 0.250000 0.000000
vt 0.000000 0.000000 0.000000
vt 0.250000 0.000000 0.000000
vt 0.250000 0.250000 0.000000
vt 0.000000 0.250000 0.000000
vt 2.565150 0.250000 0.000000
vt 2.565150 0.000000 0.000000
vt 3.110300 0.000000 0.000000
vt 3.110300 0.250000 0.000000
vt 0.855150 0.250000 0.000000
vt 0.855150 0.000000 0.000000
vt 1.055150 0.000000 0.000000
vt 1.055150 0.250000 0.000000
vt 0.250000 -0.769690 0.000000
vt 0.250000 -0.651276 0.000000
vt 0.250000 -0.532862 0.000000
vt 0.250000 -0.414449 0.000000
vt 0.250000 -0.296035 0.000000
vt 0.250000 -0.177621 0.000000
vt 0.250000 -0.059207 0.000000
vt 0.250000 0.059207 0.000000
vt 0.250000 0.177621 0.000000
vt 0.250000 0.296035 0.000000
vt 0.250000 0.414449 0.000000
vt 0.250000 0.532862 0.000000
vt 0.250000 0.651276 0.000000
vt 0.000000 0.769690 0.000000
vt 0.000000 0.651276 0.000000
vt 0.000000 0.532862 0.000000
vt 0.000000 0.414449 0.000000
vt 0.000000 0.296035 0.000000
vt 0.000000 0.177621 0.000000
vt 0.000000 0.059207 0.000000
vt 0.000000 -0.059207 0.000000
vt 0.000000 -0.177621 0.000000
vt 0.000000 -0.296035 0.000000
vt 0.000000 -0.414449 0.000000
vt 0.000000 -0.532862 0.000000
vt 0.000000 -0.651276 0.000000
vt 0.000000 -0.769690 0.000000
vt 0.250000 0.769690 0.000000
vt 0.000000 0.000000 0.000000
vt 2.970000 0.000000 0.000000
vt 2.970000 0.250000 0.000000
vt 0.000000 0.250000 0.000000
vt 0.809022 0.000000 0.000000
vt 1.011278 0.000000 0.000000
vt 1.213533 0.000000 0.000000
vt 1.415789 0.000000 0.000000
vt 1.618044 0.000000 0.000000
vt 1.618044 0.250000 0.000000
vt 1.415789 0.250000 0.000000
vt 1.213533 0.250000 0.000000
vt 1.011278 0.250000 0.000000
vt 0.809022 0.250000 0.000000
vt 0.000000 0.000000 0.000000
vt 1.043274 0.000000 0.000000
vt 1.043274 0.250000 0.000000
vt 0.000000 0.250000 0.000000
vt 0.522880 0.000000 0.000000
vt 0.653600 0.000000 0.000000
vt 0.784320 0.000000 0.000000
vt 0.915041 0.000000 0.000000
vt 1.045761 0.000000 0.000000
vt 1.176481 0.000000 0.000000
vt 1.307201 0.000000 0.000000
vt 1.437921 0.000000 0.000000
vt 1.503281 0.000000 0.000000
vt 1.568641 0.000000 0.000000
vt 1.568641 0.250000 0.000000
vt 1.503281 0.250000 0.000000
vt 1.437921 0.250000 0.000000
vt 1.307201 0.250000 0.000000
vt 1.176481 0.250000 0.000000
vt 1.045761 0.250000 0.000000
vt 0.915041 0.250000 0.000000
vt 0.784320 0.250000 0.000000
vt 0.653600 0.250000 0.000000
vt 0.522880 0.250000 0.000000
vt 1.032135 0.000000 0.000000
vt 1.290169 0.000000 0.000000
vt 1.548203 0.000000 0.000000
vt 1.806237 0.000000 0.000000
vt 2.064270 0.000000 0.000000
vt 2.064270 0.250000 0.000000
vt 1.806237 0.250000 0.000000
vt 1.548203 0.250000 0.000000
vt 1.290169 0.250000 0.000000
vt 1.032135 0.250000 0.000000
vt 0.509720 0.000000 0.000000
vt 0.573435 0.000000 0.000000
vt 0.637150 0.000000 0.000000
vt 0.700865 0.000000 0.000000
vt 0.764580 0.000000 0.000000
vt 0.892010 0.000000 0.000000
vt 1.019440 0.000000 0.000000
vt 1.146870 0.000000 0.000000
vt 1.274300 0.000000 0.000000
vt 1.401730 0.000000 0.000000
vt 1.529160 0.000000 0.000000
vt 1.529160 0.250000 0.000000
vt 1.401730 0.250000 0.000000
vt 1.274300 0.250000 0.000000
vt 1.146870 0.250000 0.000000
vt 1.019440 0.250000 0.000000
vt 0.892010 0.250000 0.000000
vt 0.764580 0.250000 0.000000
vt 0.700865 0.250000 0.000000
vt 0.637150 0.250000 0.000000
vt 0.573435 0.250000 0.000000
vt 0.509720 0.250000 0.000000
vt 0.000000 0.000000 0.000000
vt 1.460000 0.000000 0.000000
vt 1.460000 0.250000 0.000000
vt 0.000000 0.250000 0.000000
vt 0.257756 0.000000 0.000000
vt 0.298031 0.000000 0.000000
vt 0.338305 0.000000 0.000000
vt 0.378579 0.000000 0.000000
vt 0.418854 0.000000 0.000000
vt 0.459128 0.000000 0.000000
vt 0.499403 0.000000 0.000000
vt 0.579951 0.000000 0.000000
vt 0.660500 0.000000 0.000000
vt 0.741049 0.000000 0.000000
vt 0.902147 0.000000 0.000000
vt 1.063244 0.000000 0.000000
vt 1.143793 0.000000 0.000000
vt 1.224342 0.000000 0.000000
vt 1.385439 0.000000 0.000000
vt 1.465988 0.000000 0.000000
vt 1.506263 0.000000 0.000000
vt 1.546537 0.000000 0.000000
vt 1.546537 0.250000 0.000000
vt 1.506263 0.250000 0.000000
vt 1.465988 0.250000 0.000000
vt 1.385439 0.250000 0.000000
vt 1.224342 0.250000 0.000000
vt 1.143793 0.250000 0.000000
vt 1.063244 0.250000 0.000000
vt 0.902147 0.250000 0.000000
vt 0.741049 0.250000 0.000000
vt 0.660500 0.250000 0.000000
vt 0.579951 0.250000 0.000000
vt 0.499403 0.250000 0.000000
vt 0.459128 0.250000 0.000000
vt 0.418854 0.250000 0.000000
vt 0.378579 0.250000 0.000000
vt 0.338305 0.250000 0.000000
vt 0.298031 0.250000 0.000000
vt 0.257756 0.250000 0.000000
vt 0.597487 0.000000 0.000000
vt 1.045603 0.000000 0.000000
vt 1.269660 0.000000 0.000000
vt 1.493718 0.000000 0.000000
vt 1.717776 0.000000 0.000000
vt 1.941833 0.000000 0.000000
vt 2.165891 0.000000 0.000000
vt 2.277920 0.000000 0.000000
vt 2.389949 0.000000 0.000000
vt 2.389949 0.250000 0.000000
vt 2.277920 0.250000 0.000000
vt 2.165891 0.250000 0.000000
vt 1.941833 0.250000 0.000000
vt 1.717776 0.250000 0.000000
vt 1.493718 0.250000 0.000000
vt 1.269660 0.250000 0.000000
vt 1.045603 0.250000 0.000000
vt 0.597487 0.250000 0.000000
vt 0.000000 0.000000 0.000000
vt 0.149989 0.000000 0.000000
vt 0.149989 0.250000 0.000000
vt 0.000000 0.250000 0.000000
vt 1.684389 0.000000 0.000000
vt 2.105486 0.000000 0.000000
vt 2.526583 0.000000 0.000000
vt 2.947680 0.000000 0.000000
vt 3.158229 0.000000 0.000000
vt 3.368778 0.000000 0.000000
vt 3.368778 0.250000 0.000000
vt 3.158229 0.250000 0.000000
vt 2.947680 0.250000 0.000000
vt 2.526583 0.250000 0.000000
vt 2.105486 0.250000 0.000000
vt 1.684389 0.250000 0.000000
vt 0.000000 0.000000 0.000000
vt 0.150000 0.000000 0.000000
vt 0.150000 0.250000 0.000000
vt 0.000000 0.250000 0.000000
vt 0.000000 0.000000 0.000000
vt 2.150000 0.000000 0.000000
vt 2.150000 0.250000 0.000000
vt 0.000000 0.250000 0.000000
vt 0.000000 0.000000 0.000000
vt 0.380000 0.000000 0.000000
vt 0.380000 0.250000 0.000000
vt 0.000000 0.250000 0.000000
vt 1.091952 0.000000 0.000000
vt 1.228446 0.000000 0.000000
vt 1.364940 0.000000 0.000000
vt 1.637928 0.000000 0.000000
vt 1.910915 0.000000 0.000000
vt 2.183903 0.000000 0.000000
vt 2.456891 0.000000 0.000000
vt 2.729879 0.000000 0.000000
vt 3.002867 0.000000 0.000000
vt 3.139361 0.000000 0.000000
vt 3.275855 0.000000 0.000000
vt 3.275855 0.250000 0.000000
vt 3.139361 0.250000 0.000000
vt 3.002867 0.250000 0.000000
vt 2.729879 0.250000 0.000000
vt 2.456891 0.250000 0.000000
vt 2.183903 0.250000 0.000000
vt 1.910915 0.250000 0.000000
vt 1.637928 0.250000 0.000000
vt 1.364940 0.250000 0.000000
vt 1.228446 0.250000 0.000000
vt 1.091952 0.250000 0.000000
vt 0.000000 0.000000 0.000000
vt 2.100000 0.000000 0.000000
vt 2.100000 0.250000 0.000000
vt 0.000000 0.250000 0.000000
vt 0.000000 0.000000 0.000000
vt 1.600000 0.000000 0.000000
vt 1.600000 0.250000 0.000000
vt 0.000000 0.250000 0.000000
vt 1.129551 0.000000 0.000000
vt 1.270745 0.000000 0.000000
vt 1.411939 0.000000 0.000000
vt 1.694327 0.000000 0.000000
vt 2.259103 0.000000 0.000000
vt 2.541490 0.000000 0.000000
vt 2.823878 0.000000 0.000000
vt 3.106266 0.000000 0.000000
vt 3.388654 0.000000 0.000000
vt 3.388654 0.250000 0.000000
vt 3.106266 0.250000 0.000000
vt 2.823878 0.250000 0.000000
vt 2.541490 0.250000 0.000000
vt 2.259103 0.250000 0.000000
vt 1.694327 0.250000 0.000000
vt 1.411939 0.250000 0.000000
vt 1.270745 0.250000 0.000000
vt 1.129551 0.250000 0.000000
vt 6.071237 0.000000 0.000000
vt 6.450689 0.000000 0.000000
vt 6.830142 0.000000 0.000000
vt 7.209594 0.000000 0.000000
vt 7.589046 0.000000 0.000000
vt 7.968499 0.000000 0.000000
vt 8.347951 0.000000 0.000000
vt 9.106855 0.000000 0.000000
vt 9.486308 0.000000 0.000000
vt 9.865760 0.000000 0.000000
vt 10.055487 0.000000 0.000000
vt 10.245213 0.000000 0.000000
vt 10.434938 0.000000 0.000000
vt 10.624665 0.000000 0.000000
vt 10.814391 0.000000 0.000000
vt 11.004117 0.000000 0.000000
vt 11.193844 0.000000 0.000000
vt 11.383570 0.000000 0.000000
vt 11.573296 0.000000 0.000000
vt 11.763021 0.000000 0.000000
vt 11.857885 0.000000 0.000000
vt 11.952748 0.000000 0.000000
vt 12.047611 0.000000 0.000000
vt 12.142474 0.000000 0.000000
vt 12.142474 0.250000 0.000000
vt 12.047611 0.250000 0.000000
vt 11.952748 0.250000 0.000000
vt 11.857885 0.250000 0.000000
vt 11.763021 0.250000 0.000000
vt 11.573296 0.250000 0.000000
vt 11.383570 0.250000 0.000000
vt 11.193844 0.250000 0.000000
vt 11.004117 0.250000 0.000000
vt 10.814391 0.250000 0.000000
vt 10.624665 0.250000 0.000000
vt 10.434938 0.250000 0.000000
vt 10.245213 0.250000 0.000000
vt 10.055487 0.250000 0.000000
vt 9.865760 0.250000 0.000000
vt 9.486308 0.250000 0.000000
vt 9.106855 0.250000 0.000000
vt 8.347951 0.250000 0.000000
vt 7.968499 0.250000 0.000000
vt 7.589046 0.250000 0.000000
vt 7.209594 0.250000 0.000000
vt 6.830142 0.250000 0.000000
vt 6.450689 0.250000 0.000000
vt 6.071237 0.250000 0.000000
vt 0.315812 -4.378558 0.000000
vt 0.315812 -4.878558 0.000000
vt 0.515812 -4.878558 0.000000
vt 0.515812 -5.128558 0.000000
vt 1.515812 -5.128558 0.000000
vt 1.515812 -4.878558 0.000000
vt 1.715812 -4.878558 0.000000
vt 1.715812 -4.378558 0.000000
vt 1.600812 -4.378558 0.000000
vt 1.600812 -4.128558 0.000000
vt 1.715812 -4.128558 0.000000
vt 1.715812 -3.258558 0.000000
vt 2.025812 -3.258558 0.000000
vt 2.025812 -4.128558 0.000000
vt 2.150812 -4.128558 0.000000
vt 2.150812 -4.378558 0.000000
vt 2.025812 -4.378558 0.000000
vt 2.025812 -4.878558 0.000000
vt 2.570962 -4.878558 0.000000
vt 2.631924 -4.667322 0.000000
vt 2.741272 -4.457795 0.000000
vt 2.901326 -4.253109 0.000000
vt 3.110926 -4.054765 0.000000
vt 3.365430 -3.862632 0.000000
vt 3.656718 -3.674950 0.000000
vt 4.299753 -3.297732 0.000000
vt 4.617855 -3.096519 0.000000
vt 4.905448 -2.876397 0.000000
vt 5.029964 -2.756211 0.000000
vt 5.137010 -2.627451 0.000000
vt 5.222851 -2.488624 0.000000
vt 5.283535 -2.338132 0.000000
vt 5.314893 -2.174278 0.000000
vt 5.312538 -1.995260 0.000000
vt 5.271865 -1.799177 0.000000
vt 5.188054 -1.584025 0.000000
vt 5.056062 -1.347697 0.000000
vt 4.870635 -1.087985 0.000000
vt 4.756181 -0.948642 0.000000
vt 4.626297 -0.802579 0.000000
vt 4.480267 -0.649491 0.000000
vt 4.317357 -0.489067 0.000000
vt 4.268168 -0.438294 0.000000
vt 4.197875 -0.361030 0.000000
vt 4.019934 -0.157701 0.000000
vt 3.638232 0.297340 0.000000
vt 3.468127 0.508494 0.000000
vt 3.311961 0.710440 0.000000
vt 3.160055 0.921355 0.000000
vt 2.996278 1.172037 0.000000
vt 2.150989 2.530524 0.000000
vt 0.452053 3.764873 0.000000
vt 0.409503 3.960977 0.000000
vt 0.356171 4.141566 0.000000
vt 0.228431 4.462413 0.000000
vt 0.086083 4.738904 0.000000
vt -0.062101 4.981025 0.000000
vt -0.216061 5.197619 0.000000
vt -0.387131 5.400292 0.000000
vt -0.600706 5.607323 0.000000
vt -0.735281 5.720107 0.000000
vt -0.896488 5.844019 0.000000
vt -1.169837 5.580050 0.000000
vt -1.169837 3.430049 0.000000
vt -1.319837 3.430049 0.000000
vt -1.603553 3.717361 0.000000
vt -1.908750 4.018863 0.000000
vt -2.186976 4.297586 0.000000
vt -2.303168 4.416309 0.000000
vt -2.398313 4.514575 0.000000
vt -2.514876 4.420184 0.000000
vt -2.348994 4.111928 0.000000
vt -2.262134 3.928288 0.000000
vt -2.171485 3.726323 0.000000
vt -2.088091 3.516223 0.000000
vt -2.016354 3.286526 0.000000
vt -1.959989 3.028948 0.000000
vt -1.942003 2.901969 0.000000
vt -1.935083 2.791201 0.000000
vt -2.080297 2.645306 0.000000
vt -2.210078 2.505627 0.000000
vt -2.324515 2.375493 0.000000
vt -2.424088 2.257120 0.000000
vt -2.509669 2.151609 0.000000
vt -2.582525 2.058951 0.000000
vt -2.696915 1.906960 0.000000
vt -2.781232 1.787376 0.000000
vt -2.846219 1.688918 0.000000
vt -2.941365 1.530547 0.000000
vt -3.004091 1.390391 0.000000
vt -3.023947 1.309555 0.000000
vt -3.035439 1.214870 0.000000
vt -3.031544 0.992874 0.000000
vt -3.005294 0.860423 0.000000
vt -2.978121 0.777840 0.000000
vt -2.936249 0.675940 0.000000
vt -3.986485 -0.338262 0.000000
vt -4.109171 -0.458955 0.000000
vt -4.207958 -0.560368 0.000000
vt -4.288326 -0.646906 0.000000
vt -4.354895 -0.722239 0.000000
vt -4.460832 -0.850296 0.000000
vt -4.545591 -0.959197 0.000000
vt -4.615822 -1.052500 0.000000
vt -4.670977 -1.129904 0.000000
vt -4.709280 -1.194487 0.000000
vt -4.728275 -1.253370 0.000000
vt -4.574035 -1.442499 0.000000
vt -4.403659 -1.624638 0.000000
vt -4.208812 -1.814906 0.000000
vt -3.981160 -2.028419 0.000000
vt -3.837738 -2.146804 0.000000
vt -3.698648 -2.236731 0.000000
vt -3.563936 -2.306499 0.000000
vt -3.436429 -2.360332 0.000000
vt -3.320932 -2.398475 0.000000
vt -3.215288 -2.418306 0.000000
vt -3.101441 -2.415444 0.000000
vt -3.031231 -2.403682 0.000000
vt -2.944629 -2.383852 0.000000
vt -1.932345 -2.131462 0.000000
vt -1.760669 -2.084660 0.000000
vt -1.570860 -2.033589 0.000000
vt -1.370450 -1.992496 0.000000
vt -1.166973 -1.975633 0.000000
vt -0.539338 -4.878558 0.000000
vt 0.005812 -4.878558 0.000000
vt 0.005812 -4.378558 0.000000
vt -0.119188 -4.378558 0.000000
vt -0.119188 -4.128558 0.000000
vt 0.005812 -4.128558 0.000000
vt 0.005812 -3.258558 0.000000
vt 0.315812 -3.258558 0.000000
vt 0.315812 -4.128558 0.000000
vt 0.430812 -4.128558 0.000000
vt 0.430812 -4.378558 0.000000
vt -1.991249 0.975940 0.000000
vt -2.019313 0.862082 0.000000
vt -2.097074 0.774309 0.000000
vt -2.206718 0.732726 0.000000
vt -2.323128 0.746861 0.000000
vt -2.419634 0.813475 0.000000
vt -2.474130 0.917307 0.000000
vt -2.474130 1.034572 0.000000
vt -2.419634 1.138405 0.000000
vt -2.323128 1.205019 0.000000
vt -2.206718 1.219153 0.000000
vt -2.097074 1.177571 0.000000
vt -2.019313 1.089797 0.000000
vn -0.100000 0.000000 0.000000
vn -0.100000 0.000000 0.000000
vn -0.100000 0.000000 0.000000
vn -0.100000 0.000000 0.000000
vn 0.000000 0.100000 0.000000
vn 0.000000 0.100000 0.000000
vn 0.000000 0.100000 0.000000
vn 0.000000 0.100000 0.000000
vn -0.100000 0.000000 0.000000
vn -0.100000 0.000000 0.000000
vn -0.100000 0.000000 0.000000
vn -0.100000 0.000000 0.000000
vn 0.000000 -0.100000 0.000000
vn 0.000000 -0.100000 0.000000
vn 0.000000 -0.100000 0.000000
vn 0.000000 -0.100000 0.000000
vn -0.100000 0.000000 0.000000
vn -0.100000 0.000000 0.000000
vn -0.100000 0.000000 0.000000
vn -0.100000 0.000000 0.000000
vn 0.000000 -0.100000 0.000000
vn 0.000000 -0.100000 0.000000
vn 0.000000 -0.100000 0.000000
vn 0.000000 -0.100000 0.000000
vn 0.100000 0.000000 0.000000
vn 0.100000 0.000000 0.000000
vn 0.100000 0.000000 0.000000
vn 0.100000 0.000000 0.000000
vn 0.000000 -0.100000 0.000000
vn 0.000000 -0.100000 0.000000
vn 0.000000 -0.100000 0.000000
vn 0.000000 -0.100000 0.000000
vn 0.100000 0.000000 0.000000
vn 0.100000 0.000000 0.000000
vn 0.100000 0.000000 0.000000
vn 0.100000 0.000000 0.000000
vn 0.000000 0.100000 0.000000
vn 0.000000 0.100000 0.000000
vn 0.000000 0.100000 0.000000
vn 0.000000 0.100000 0.000000
vn 0.100000 0.000000 0.000000
vn 0.100000 0.000000 0.000000
vn 0.100000 0.000000 0.000000
vn 0.100000 0.000000 0.000000
vn 0.100000 0.000000 0.000000
vn 0.100000 0.000000 0.000000
vn 0.100000 0.000000 0.000000
vn 0.100000 0.000000 0.000000
vn 0.000000 0.100000 0.000000
vn 0.000000 0.100000 0.000000
vn 0.000000 0.100000 0.000000
vn 0.000000 0.100000 0.000000
vn 0.100000 0.000000 0.000000
vn 0.100000 0.000000 0.000000
vn 0.100000 0.000000 0.000000
vn 0.100000 0.000000 0.000000
vn -0.100000 0.000000 0.000000
vn -0.100000 0.000000 0.000000
vn -0.100000 0.000000 0.000000
vn -0.100000 0.000000 0.000000
vn 0.000000 0.100000 0.000000
vn 0.000000 0.100000 0.000000
vn 0.000000 0.100000 0.000000
vn 0.000000 0.100000 0.000000
vn -0.100000 0.000000 0.000000
vn -0.100000 0.000000 0.000000
vn -0.100000 0.000000 0.000000
vn -0.100000 0.000000 0.000000
vn 0.000000 -0.100000 0.000000
vn 0.000000 -0.100000 0.000000
vn 0.000000 -0.100000 0.000000
vn 0.000000 -0.100000 0.000000
vn -0.100000 0.000000 0.000000
vn -0.100000 0.000000 0.000000
vn -0.100000 0.000000 0.000000
vn -0.100000 0.000000 0.000000
vn 0.000000 -0.100000 0.000000
vn 0.000000 -0.100000 0.000000
vn 0.000000 -0.100000 0.000000
vn 0.000000 -0.100000 0.000000
vn 0.100000 0.000000 0.000000
vn 0.100000 0.000000 0.000000
vn 0.100000 0.000000 0.000000
vn 0.100000 0.000000 0.000000
vn 0.000000 -0.100000 0.000000
vn 0.000000 -0.100000 0.000000
vn 0.000000 -0.100000 0.000000
vn 0.000000 -0.100000 0.000000
vn 0.000000 -0.100000 0.000000
vn 0.000000 -0.100000 0.000000
vn 0.000000 -0.100000 0.000000
vn 0.000000 -0.100000 0.000000
vn 0.000000 0.000000 -0.100000
vn 0.000000 0.000000 -0.100000
vn 0.000000 0.000000 -0.100000
vn 0.000000 0.000000 -0.100000
vn 0.000000 0.000000 -0.100000
vn 0.000000 0.000000 -0.100000
vn 0.000000 0.000000 -0.100000
vn 0.000000 0.000000 -0.100000
vn 0.000000 0.000000 -0.100000
vn 0.000000 0.000000 -0.100000
vn 0.000000 0.000000 -0.100000
vn 0.000000 0.000000 -0.100000
vn 0.000000 0.000000 -0.100000
vn 0.000000 0.000000 -0.100000
vn 0.000000 0.000000 -0.100000
vn 0.000000 0.000000 -0.100000
vn 0.000000 0.000000 -0.100000
vn 0.000000 0.000000 -0.100000
vn 0.000000 0.000000 -0.100000
vn 0.000000 0.000000 -0.100000
vn 0.000000 0.000000 -0.100000
vn 0.000000 0.000000 -0.100000
vn 0.000000 0.000000 -0.100000
vn 0.000000 0.000000 -0.100000
vn 0.000000 0.000000 -0.100000
vn 0.000000 0.000000 -0.100000
vn 0.000000 0.000000 -0.100000
vn 0.000000 0.000000 -0.100000
vn 0.000000 0.000000 -0.100000
vn 0.000000 0.000000 -0.100000
vn 0.000000 0.000000 -0.100000
vn 0.000000 0.000000 -0.100000
vn 0.000000 0.000000 -0.100000
vn 0.000000 0.000000 -0.100000
vn 0.000000 0.000000 -0.100000
vn 0.000000 0.000000 -0.100000
vn 0.000000 0.000000 -0.100000
vn 0.000000 0.000000 -0.100000
vn 0.000000 0.000000 -0.100000
vn 0.000000 0.000000 -0.100000
vn 0.000000 0.000000 -0.100000
vn 0.000000 0.000000 -0.100000
vn 0.000000 0.000000 -0.100000
vn 0.000000 0.000000 -0.100000
vn 0.000000 0.000000 -0.100000
vn 0.000000 0.000000 -0.100000
vn 0.000000 0.000000 -0.100000
vn 0.000000 0.000000 -0.100000
vn 0.000000 0.000000 -0.100000
vn 0.000000 0.000000 -0.100000
vn 0.000000 0.000000 -0.100000
vn 0.000000 0.000000 -0.100000
vn 0.000000 0.000000 -0.100000
vn 0.000000 0.000000 -0.100000
vn 0.000000 0.000000 -0.100000
vn 0.000000 0.000000 -0.100000
vn 0.000000 0.000000 -0.100000
vn 0.000000 0.000000 -0.100000
vn 0.000000 0.000000 -0.100000
vn 0.000000 0.000000 -0.100000
vn 0.000000 0.000000 -0.100000
vn 0.000000 0.000000 -0.100000
vn 0.000000 0.000000 -0.100000
vn 0.000000 0.000000 -0.100000
vn 0.000000 0.000000 -0.100000
vn 0.000000 0.000000 -0.100000
vn 0.000000 0.000000 -0.100000
vn 0.000000 0.000000 -0.100000
vn 0.000000 0.000000 -0.100000
vn 0.000000 0.000000 -0.100000
vn 0.000000 0.000000 -0.100000
vn 0.000000 0.000000 -0.100000
vn 0.000000 0.000000 -0.100000
vn 0.000000 0.000000 -0.100000
vn 0.000000 0.000000 -0.100000
vn 0.000000 0.000000 -0.100000
vn 0.000000 0.000000 -0.100000
vn 0.000000 0.000000 -0.100000
vn 0.000000 0.000000 -0.100000
vn 0.000000 0.000000 -0.100000
vn 0.000000 0.000000 -0.100000
vn 0.000000 0.000000 -0.100000
vn 0.000000 0.000000 -0.100000
vn 0.000000 0.000000 -0.100000
vn 0.000000 0.000000 -0.100000
vn 0.000000 0.000000 -0.100000
vn 0.000000 0.000000 -0.100000
vn 0.000000 0.000000 -0.100000
vn 0.000000 0.000000 -0.100000
vn 0.000000 0.000000 -0.100000
vn 0.000000 0.000000 -0.100000
vn 0.000000 0.000000 -0.100000
vn 0.000000 0.000000 -0.100000
vn 0.000000 0.000000 -0.100000
vn 0.000000 0.000000 -0.100000
vn 0.000000 0.000000 -0.100000
vn 0.000000 0.000000 -0.100000
vn 0.000000 0.000000 -0.100000
vn 0.000000 0.000000 -0.100000
vn 0.000000 0.000000 -0.100000
vn 0.000000 0.000000 -0.100000
vn 0.000000 0.000000 -0.100000
vn 0.000000 0.000000 -0.100000
vn 0.000000 0.000000 -0.100000
vn 0.000000 0.000000 -0.100000
vn 0.000000 0.000000 -0.100000
vn 0.000000 0.000000 -0.100000
vn 0.000000 0.000000 -0.100000
vn 0.000000 0.000000 -0.100000
vn 0.000000 0.000000 -0.100000
vn 0.000000 0.000000 -0.100000
vn 0.000000 0.000000 -0.100000
vn 0.000000 0.000000 -0.100000
vn 0.000000 0.000000 -0.100000
vn 0.000000 0.000000 -0.100000
vn 0.000000 0.000000 -0.100000
vn 0.000000 0.000000 -0.100000
vn 0.000000 0.000000 -0.100000
vn 0.000000 0.000000 -0.100000
vn 0.000000 0.000000 -0.100000
vn 0.000000 0.000000 -0.100000
vn 0.000000 0.000000 -0.100000
vn 0.000000 0.000000 -0.100000
vn 0.000000 0.000000 -0.100000
vn 0.000000 0.000000 -0.100000
vn 0.000000 0.000000 -0.100000
vn 0.000000 0.000000 -0.100000
vn 0.000000 0.000000 -0.100000
vn 0.000000 0.000000 -0.100000
vn 0.000000 0.000000 -0.100000
vn 0.000000 0.000000 -0.100000
vn 0.000000 0.000000 -0.100000
vn 0.000000 0.000000 -0.100000
vn 0.000000 0.000000 -0.100000
vn 0.000000 0.000000 -0.100000
vn 0.000000 0.000000 -0.100000
vn 0.000000 0.000000 -0.100000
vn 0.000000 0.000000 -0.100000
vn 0.000000 0.000000 -0.100000
vn 0.000000 0.000000 -0.100000
vn 0.000000 0.000000 -0.100000
vn 0.000000 0.000000 -0.100000
vn 0.000000 0.000000 -0.100000
vn 0.000000 0.000000 -0.100000
vn 0.000000 0.000000 -0.100000
vn 0.000000 0.000000 -0.100000
vn 0.000000 0.000000 -0.100000
vn 0.000000 0.000000 -0.100000
vn 0.000000 0.000000 -0.100000
vn 0.000000 -0.100000 0.000000
vn 0.000000 -0.100000 0.000000
vn 0.000000 -0.100000 0.000000
vn 0.000000 -0.100000 0.000000
vn -0.100000 0.000000 0.000000
vn -0.100000 0.000000 0.000000
vn -0.100000 0.000000 0.000000
vn -0.100000 0.000000 0.000000
vn 0.000000 -0.100000 0.000000
vn 0.000000 -0.100000 0.000000
vn 0.000000 -0.100000 0.000000
vn 0.000000 -0.100000 0.000000
vn 0.100000 0.000000 0.000000
vn 0.100000 0.000000 0.000000
vn 0.100000 0.000000 0.000000
vn 0.100000 0.000000 0.000000
vn 0.000000 -0.100000 0.000000
vn 0.000000 -0.100000 0.000000
vn 0.000000 -0.100000 0.000000
vn 0.000000 -0.100000 0.000000
vn 0.000000 -0.100000 0.000000
vn 0.000000 -0.100000 0.000000
vn 0.000000 -0.100000 0.000000
vn 0.000000 -0.100000 0.000000
vn -0.100000 0.000000 0.000000
vn -0.088546 0.046472 0.000000
vn -0.056806 0.082298 0.000000
vn -0.012054 0.099271 0.000000
vn 0.035460 0.093502 0.000000
vn 0.074851 0.066312 0.000000
vn 0.097094 0.023932 0.000000
vn 0.097094 -0.023932 0.000000
vn 0.074851 -0.066312 0.000000
vn 0.035460 -0.093502 0.000000
vn -0.012054 -0.099271 0.000000
vn -0.056806 -0.082298 0.000000
vn -0.088546 -0.046472 0.000000
vn -0.100000 0.000000 0.000000
vn -0.088546 -0.046472 0.000000
vn -0.056806 -0.082298 0.000000
vn -0.012054 -0.099271 0.000000
vn 0.035460 -0.093502 0.000000
vn 0.074851 -0.066312 0.000000
vn 0.097094 -0.023932 0.000000
vn 0.097094 0.023932 0.000000
vn 0.074851 0.066312 0.000000
vn 0.035460 0.093502 0.000000
vn -0.012054 0.099271 0.000000
vn -0.056806 0.082298 0.000000
vn -0.088546 0.046472 0.000000
vn -0.100000 0.000000 0.000000
vn -0.100000 0.000000 0.000000
vn -0.097742 -0.021132 0.000000
vn -0.097742 -0.021132 0.000000
vn -0.097742 -0.021132 0.000000
vn -0.097742 -0.021132 0.000000
vn 0.024192 -0.097030 0.000000
vn 0.027135 -0.096248 0.000000
vn 0.023958 -0.097088 0.000000
vn 0.015249 -0.098830 0.000000
vn 0.000000 -0.100000 0.000000
vn 0.000000 -0.100000 0.000000
vn 0.015249 -0.098830 0.000000
vn 0.023958 -0.097088 0.000000
vn 0.027135 -0.096248 0.000000
vn 0.024192 -0.097030 0.000000
vn 0.024192 -0.097030 0.000000
vn 0.024192 -0.097030 0.000000
vn 0.024192 -0.097030 0.000000
vn 0.024192 -0.097030 0.000000
vn -0.068200 -0.073135 0.000000
vn -0.058766 -0.080911 0.000000
vn -0.049823 -0.086705 0.000000
vn -0.042246 -0.090638 0.000000
vn -0.035383 -0.093531 0.000000
vn -0.026200 -0.096507 0.000000
vn -0.008844 -0.099608 0.000000
vn 0.012453 -0.099222 0.000000
vn 0.019817 -0.098017 0.000000
vn 0.024192 -0.097030 0.000000
vn 0.024192 -0.097030 0.000000
vn 0.019817 -0.098017 0.000000
vn 0.012453 -0.099222 0.000000
vn -0.008844 -0.099608 0.000000
vn -0.026200 -0.096507 0.000000
vn -0.035383 -0.093531 0.000000
vn -0.042246 -0.090638 0.000000
vn -0.049823 -0.086705 0.000000
vn -0.058766 -0.080911 0.000000
vn -0.068200 -0.073135 0.000000
vn -0.079864 -0.060182 0.000000
vn -0.075116 -0.066011 0.000000
vn -0.071186 -0.070232 0.000000
vn -0.068876 -0.072499 0.000000
vn -0.068200 -0.073135 0.000000
vn -0.068200 -0.073135 0.000000
vn -0.068876 -0.072499 0.000000
vn -0.071186 -0.070232 0.000000
vn -0.075116 -0.066011 0.000000
vn -0.079864 -0.060182 0.000000
vn -0.069466 0.071934 0.000000
vn -0.070873 0.070548 0.000000
vn -0.072462 0.068915 0.000000
vn -0.074135 0.067112 0.000000
vn -0.075748 0.065285 0.000000
vn -0.078225 0.062296 0.000000
vn -0.079471 0.060699 0.000000
vn -0.080429 0.059424 0.000000
vn -0.083030 0.055731 0.000000
vn -0.090027 0.043534 0.000000
vn -0.099027 0.013917 0.000000
vn -0.099027 0.013917 0.000000
vn -0.090027 0.043534 0.000000
vn -0.083030 0.055731 0.000000
vn -0.080429 0.059424 0.000000
vn -0.079471 0.060699 0.000000
vn -0.078225 0.062296 0.000000
vn -0.075748 0.065285 0.000000
vn -0.074135 0.067112 0.000000
vn -0.072462 0.068915 0.000000
vn -0.070873 0.070548 0.000000
vn -0.069466 0.071934 0.000000
vn -0.069466 0.071934 0.000000
vn -0.069466 0.071934 0.000000
vn -0.069466 0.071934 0.000000
vn -0.069466 0.071934 0.000000
vn -0.069466 0.071934 0.000000
vn -0.072184 0.069206 0.000000
vn -0.074267 0.066966 0.000000
vn -0.075880 0.065132 0.000000
vn -0.077147 0.063626 0.000000
vn -0.078170 0.062365 0.000000
vn -0.079057 0.061237 0.000000
vn -0.080845 0.058856 0.000000
vn -0.082657 0.056283 0.000000
vn -0.084262 0.053851 0.000000
vn -0.087652 0.048137 0.000000
vn -0.095264 0.030411 0.000000
vn -0.098422 0.017693 0.000000
vn -0.099749 0.007081 0.000000
vn -0.099347 -0.011409 0.000000
vn -0.096223 -0.027223 0.000000
vn -0.093759 -0.034774 0.000000
vn -0.091355 -0.040674 0.000000
vn -0.091355 -0.040674 0.000000
vn -0.093759 -0.034774 0.000000
vn -0.096223 -0.027223 0.000000
vn -0.099347 -0.011409 0.000000
vn -0.099749 0.007081 0.000000
vn -0.098422 0.017693 0.000000
vn -0.095264 0.030411 0.000000
vn -0.087652 0.048137 0.000000
vn -0.084262 0.053851 0.000000
vn -0.082657 0.056283 0.000000
vn -0.080845 0.058856 0.000000
vn -0.079057 0.061237 0.000000
vn -0.078170 0.062365 0.000000
vn -0.077147 0.063626 0.000000
vn -0.075880 0.065132 0.000000
vn -0.074267 0.066966 0.000000
vn -0.072184 0.069206 0.000000
vn -0.069466 0.071934 0.000000
vn -0.084805 -0.052992 0.000000
vn -0.090086 -0.043411 0.000000
vn -0.090705 -0.042103 0.000000
vn -0.091903 -0.039419 0.000000
vn -0.094104 -0.033829 0.000000
vn -0.096636 -0.025720 0.000000
vn -0.098575 -0.016823 0.000000
vn -0.099421 -0.010744 0.000000
vn -0.100000 0.000000 0.000000
vn -0.100000 0.000000 0.000000
vn -0.099421 -0.010744 0.000000
vn -0.098575 -0.016823 0.000000
vn -0.096636 -0.025720 0.000000
vn -0.094104 -0.033829 0.000000
vn -0.091903 -0.039419 0.000000
vn -0.090705 -0.042103 0.000000
vn -0.090086 -0.043411 0.000000
vn -0.084805 -0.052992 0.000000
vn -0.062932 0.077715 0.000000
vn -0.062932 0.077715 0.000000
vn -0.062932 0.077715 0.000000
vn -0.062932 0.077715 0.000000
vn 0.072537 0.068835 0.000000
vn 0.070377 0.071042 0.000000
vn 0.070397 0.071023 0.000000
vn 0.071239 0.070178 0.000000
vn 0.071695 0.069712 0.000000
vn 0.071934 0.069466 0.000000
vn 0.071934 0.069466 0.000000
vn 0.071695 0.069712 0.000000
vn 0.071239 0.070178 0.000000
vn 0.070397 0.071023 0.000000
vn 0.070377 0.071042 0.000000
vn 0.072537 0.068835 0.000000
vn 0.000000 0.100000 0.000000
vn 0.000000 0.100000 0.000000
vn 0.000000 0.100000 0.000000
vn 0.000000 0.100000 0.000000
vn -0.100000 0.000000 0.000000
vn -0.100000 0.000000 0.000000
vn -0.100000 0.000000 0.000000
vn -0.100000 0.000000 0.000000
vn -0.069466 0.071934 0.000000
vn -0.069466 0.071934 0.000000
vn -0.069466 0.071934 0.000000
vn -0.069466 0.071934 0.000000
vn 0.098481 0.017365 0.000000
vn 0.096835 0.024959 0.000000
vn 0.094884 0.031577 0.000000
vn 0.090774 0.041954 0.000000
vn 0.087009 0.049290 0.000000
vn 0.083480 0.055055 0.000000
vn 0.079242 0.060998 0.000000
vn 0.073270 0.068055 0.000000
vn 0.066031 0.075099 0.000000
vn 0.062554 0.078019 0.000000
vn 0.059482 0.080386 0.000000
vn 0.059482 0.080386 0.000000
vn 0.062554 0.078019 0.000000
vn 0.066031 0.075099 0.000000
vn 0.073270 0.068055 0.000000
vn 0.079242 0.060998 0.000000
vn 0.083480 0.055055 0.000000
vn 0.087009 0.049290 0.000000
vn 0.090774 0.041954 0.000000
vn 0.094884 0.031577 0.000000
vn 0.096835 0.024959 0.000000
vn 0.098481 0.017365 0.000000
vn 0.058779 0.080902 0.000000
vn 0.058779 0.080902 0.000000
vn 0.058779 0.080902 0.000000
vn 0.058779 0.080902 0.000000
vn 0.084905 0.052831 0.000000
vn 0.084905 0.052831 0.000000
vn 0.084905 0.052831 0.000000
vn 0.084905 0.052831 0.000000
vn 0.069136 0.072251 0.000000
vn 0.073179 0.068153 0.000000
vn 0.074526 0.066678 0.000000
vn 0.075785 0.065243 0.000000
vn 0.077434 0.063277 0.000000
vn 0.078385 0.062096 0.000000
vn 0.079977 0.060031 0.000000
vn 0.082371 0.056701 0.000000
vn 0.084905 0.052831 0.000000
vn 0.084905 0.052831 0.000000
vn 0.082371 0.056701 0.000000
vn 0.079977 0.060031 0.000000
vn 0.078385 0.062096 0.000000
vn 0.077434 0.063277 0.000000
vn 0.075785 0.065243 0.000000
vn 0.074526 0.066678 0.000000
vn 0.073179 0.068153 0.000000
vn 0.069136 0.072251 0.000000
vn 0.098378 -0.017940 0.000000
vn 0.092838 -0.037163 0.000000
vn 0.083893 -0.054423 0.000000
vn 0.073627 -0.067668 0.000000
vn 0.064177 -0.076690 0.000000
vn 0.056802 -0.082302 0.000000
vn 0.052021 -0.085404 0.000000
vn 0.051300 -0.085839 0.000000
vn 0.056326 -0.082628 0.000000
vn 0.066114 -0.075027 0.000000
vn 0.072978 -0.068368 0.000000
vn 0.080883 -0.058804 0.000000
vn 0.089008 -0.045581 0.000000
vn 0.095838 -0.028550 0.000000
vn 0.099605 -0.008877 0.000000
vn 0.099393 0.011004 0.000000
vn 0.095803 0.028665 0.000000
vn 0.090330 0.042902 0.000000
vn 0.084332 0.053742 0.000000
vn 0.078617 0.061801 0.000000
vn 0.075984 0.065010 0.000000
vn 0.073526 0.067779 0.000000
vn 0.071244 0.070173 0.000000
vn 0.069136 0.072251 0.000000
vn 0.069136 0.072251 0.000000
vn 0.071244 0.070173 0.000000
vn 0.073526 0.067779 0.000000
vn 0.075984 0.065010 0.000000
vn 0.078617 0.061801 0.000000
vn 0.084332 0.053742 0.000000
vn 0.090330 0.042902 0.000000
vn 0.095803 0.028665 0.000000
vn 0.099393 0.011004 0.000000
vn 0.099605 -0.008877 0.000000
vn 0.095838 -0.028550 0.000000
vn 0.089008 -0.045581 0.000000
vn 0.080883 -0.058804 0.000000
vn 0.072978 -0.068368 0.000000
vn 0.066114 -0.075027 0.000000
vn 0.056326 -0.082628 0.000000
vn 0.051300 -0.085839 0.000000
vn 0.052021 -0.085404 0.000000
vn 0.056802 -0.082302 0.000000
vn 0.064177 -0.076690 0.000000
vn 0.073627 -0.067668 0.000000
vn 0.083893 -0.054423 0.000000
vn 0.092838 -0.037163 0.000000
vn 0.098378 -0.017940 0.000000
vn 0.000000 0.000000 0.100000
vn 0.000000 0.000000 0.100000
vn 0.000000 0.000000 0.100000
vn 0.000000 0.000000 0.100000
vn 0.000000 0.000000 0.100000
vn 0.000000 0.000000 0.100000
vn 0.000000 0.000000 0.100000
vn 0.000000 0.000000 0.100000
vn 0.000000 0.000000 0.100000
vn 0.000000 0.000000 0.100000
vn 0.000000 0.000000 0.100000
vn 0.000000 0.000000 0.100000
vn 0.000000 0.000000 0.100000
vn 0.000000 0.000000 0.100000
vn 0.000000 0.000000 0.100000
vn 0.000000 0.000000 0.100000
vn 0.000000 0.000000 0.100000
vn 0.000000 0.000000 0.100000
vn 0.000000 0.000000 0.100000
vn 0.000000 0.000000 0.100000
vn 0.000000 0.000000 0.100000
vn 0.000000 0.000000 0.100000
vn 0.000000 0.000000 0.100000
vn 0.000000 0.000000 0.100000
vn 0.000000 0.000000 0.100000
vn 0.000000 0.000000 0.100000
vn 0.000000 0.000000 0.100000
vn 0.000000 0.000000 0.100000
vn 0.000000 0.000000 0.100000
vn 0.000000 0.000000 0.100000
vn 0.000000 0.000000 0.100000
vn 0.000000 0.000000 0.100000
vn 0.000000 0.000000 0.100000
vn 0.000000 0.000000 0.100000
vn 0.000000 0.000000 0.100000
vn 0.000000 0.000000 0.100000
vn 0.000000 0.000000 0.100000
vn 0.000000 0.000000 0.100000
vn 0.000000 0.000000 0.100000
vn 0.000000 0.000000 0.100000
vn 0.000000 0.000000 0.100000
vn 0.000000 0.000000 0.100000
vn 0.000000 0.000000 0.100000
vn 0.000000 0.000000 0.100000
vn 0.000000 0.000000 0.100000
vn 0.000000 0.000000 0.100000
vn 0.000000 0.000000 0.100000
vn 0.000000 0.000000 0.100000
vn 0.000000 0.000000 0.100000
vn 0.000000 0.000000 0.100000
vn 0.000000 0.000000 0.100000
vn 0.000000 0.000000 0.100000
vn 0.000000 0.000000 0.100000
vn 0.000000 0.000000 0.100000
vn 0.000000 0.000000 0.100000
vn 0.000000 0.000000 0.100000
vn 0.000000 0.000000 0.100000
vn 0.000000 0.000000 0.100000
vn 0.000000 0.000000 0.100000
vn 0.000000 0.000000 0.100000
vn 0.000000 0.000000 0.100000
vn 0.000000 0.000000 0.100000
vn 0.000000 0.000000 0.100000
vn 0.000000 0.000000 0.100000
vn 0.000000 0.000000 0.100000
vn 0.000000 0.000000 0.100000
vn 0.000000 0.000000 0.100000
vn 0.000000 0.000000 0.100000
vn 0.000000 0.000000 0.100000
vn 0.000000 0.000000 0.100000
vn 0.000000 0.000000 0.100000
vn 0.000000 0.000000 0.100000
vn 0.000000 0.000000 0.100000
vn 0.000000 0.000000 0.100000
vn 0.000000 0.000000 0.100000
vn 0.000000 0.000000 0.100000
vn 0.000000 0.000000 0.100000
vn 0.000000 0.000000 0.100000
vn 0.000000 0.000000 0.100000
vn 0.000000 0.000000 0.100000
vn 0.000000 0.000000 0.100000
vn 0.000000 0.000000 0.100000
vn 0.000000 0.000000 0.100000
vn 0.000000 0.000000 0.100000
vn 0.000000 0.000000 0.100000
vn 0.000000 0.000000 0.100000
vn 0.000000 0.000000 0.100000
vn 0.000000 0.000000 0.100000
vn 0.000000 0.000000 0.100000
vn 0.000000 0.000000 0.100000
vn 0.000000 0.000000 0.100000
vn 0.000000 0.000000 0.100000
vn 0.000000 0.000000 0.100000
vn 0.000000 0.000000 0.100000
vn 0.000000 0.000000 0.100000
vn 0.000000 0.000000 0.100000
vn 0.000000 0.000000 0.100000
vn 0.000000 0.000000 0.100000
vn 0.000000 0.000000 0.100000
vn 0.000000 0.000000 0.100000
vn 0.000000 0.000000 0.100000
vn 0.000000 0.000000 0.100000
vn 0.000000 0.000000 0.100000
vn 0.000000 0.000000 0.100000
vn 0.000000 0.000000 0.100000
vn 0.000000 0.000000 0.100000
vn 0.000000 0.000000 0.100000
vn 0.000000 0.000000 0.100000
vn 0.000000 0.000000 0.100000
vn 0.000000 0.000000 0.100000
vn 0.000000 0.000000 0.100000
vn 0.000000 0.000000 0.100000
vn 0.000000 0.000000 0.100000
vn 0.000000 0.000000 0.100000
vn 0.000000 0.000000 0.100000
vn 0.000000 0.000000 0.100000
vn 0.000000 0.000000 0.100000
vn 0.000000 0.000000 0.100000
vn 0.000000 0.000000 0.100000
vn 0.000000 0.000000 0.100000
vn 0.000000 0.000000 0.100000
vn 0.000000 0.000000 0.100000
vn 0.000000 0.000000 0.100000
vn 0.000000 0.000000 0.100000
vn 0.000000 0.000000 0.100000
vn 0.000000 0.000000 0.100000
vn 0.000000 0.000000 0.100000
vn 0.000000 0.000000 0.100000
vn 0.000000 0.000000 0.100000
vn 0.000000 0.000000 0.100000
vn 0.000000 0.000000 0.100000
vn 0.000000 0.000000 0.100000
vn 0.000000 0.000000 0.100000
vn 0.000000 0.000000 0.100000
vn 0.000000 0.000000 0.100000
vn 0.000000 0.000000 0.100000
vn 0.000000 0.000000 0.100000
vn 0.000000 0.000000 0.100000
vn 0.000000 0.000000 0.100000
vn 0.000000 0.000000 0.100000
vn 0.000000 0.000000 0.100000
vn 0.000000 0.000000 0.100000
vn 0.000000 0.000000 0.100000
vn 0.000000 0.000000 0.100000
vn 0.000000 0.000000 0.100000
vn 0.000000 0.000000 0.100000
vn 0.000000 0.000000 0.100000
vn 0.000000 0.000000 0.100000
vn 0.000000 0.000000 0.100000
usemtl 245,245,245
f 184/1/1 186/2/2 183/4/4
f 183/4/4 186/2/2 185/3/3
f 186/5/5 196/6/6 185/8/8
f 185/8/8 196/6/6 195/7/7
f 196/9/9 198/10/10 195/12/12
f 195/12/12 198/10/10 197/11/11
f 198/13/13 188/14/14 197/16/16
f 197/16/16 188/14/14 187/15/15
f 188/17/17 190/18/18 187/20/20
f 187/20/20 190/18/18 189/19/19
f 190/21/21 178/22/22 189/24/24
f 189/24/24 178/22/22 177/23/23
f 178/25/25 176/26/26 177/28/28
f 177/28/28 176/26/26 175/27/27
f 176/29/29 168/30/30 175/32/32
f 175/32/32 168/30/30 167/31/31
f 168/33/33 166/34/34 167/36/36
f 167/36/36 166/34/34 165/35/35
f 166/37/37 174/38/38 165/40/40
f 165/40/40 174/38/38 173/39/39
f 174/41/41 172/42/42 173/44/44
f 173/44/44 172/42/42 171/43/43
f 212/45/45 210/46/46 211/48/48
f 211/48/48 210/46/46 209/47/47
f 210/49/49 216/50/50 209/52/52
f 209/52/52 216/50/50 215/51/51
f 216/53/53 214/54/54 215/56/56
f 215/56/56 214/54/54 213/55/55
f 222/57/57 224/58/58 221/60/60
f 221/60/60 224/58/58 223/59/59
f 224/61/61 230/62/62 223/64/64
f 223/64/64 230/62/62 229/63/63
f 230/65/65 232/66/66 229/68/68
f 229/68/68 232/66/66 231/67/67
f 232/69/69 226/70/70 231/72/72
f 231/72/72 226/70/70 225/71/71
f 226/73/73 228/74/74 225/76/76
f 225/76/76 228/74/74 227/75/75
f 228/77/77 220/78/78 227/80/80
f 227/80/80 220/78/78 219/79/79
f 220/81/81 218/82/82 219/84/84
f 219/84/84 218/82/82 217/83/83
f 218/85/85 212/86/86 217/88/88
f 217/88/88 212/86/86 211/87/87
f 172/90/90 160/91/91 171/89/89
f 171/89/89 160/91/91 159/92/92
f 185/94/94 195/95/95 183/93/93
f 183/93/93 195/95/95 203/228/228
f 203/228/228 195/95/95 209/222/222
f 203/228/228 209/222/222 207/225/225
f 207/225/225 209/222/222 213/224/224
f 213/224/224 209/222/222 215/223/223
f 209/222/222 195/95/95 211/221/221
f 211/221/221 195/95/95 197/96/96
f 211/221/221 197/96/96 219/219/219
f 219/219/219 197/96/96 189/98/98
f 219/219/219 189/98/98 247/182/182
f 247/182/182 189/98/98 151/106/106
f 247/182/182 151/106/106 243/181/181
f 243/181/181 151/106/106 125/229/229
f 243/181/181 125/229/229 233/180/180
f 233/180/180 125/229/229 199/179/179
f 199/179/179 125/229/229 147/167/167
f 199/179/179 147/167/167 193/178/178
f 193/178/178 147/167/167 191/177/177
f 191/177/177 147/167/167 181/176/176
f 181/176/176 147/167/167 179/175/175
f 179/175/175 147/167/167 169/174/174
f 169/174/174 147/167/167 163/173/173
f 163/173/173 147/167/167 149/168/168
f 163/173/173 149/168/168 161/172/172
f 161/172/172 149/168/168 157/171/171
f 157/171/171 149/168/168 155/170/170
f 155/170/170 149/168/168 153/169/169
f 197/96/96 187/97/97 189/98/98
f 189/98/98 177/99/99 151/106/106
f 151/106/106 177/99/99 167/101/101
f 151/106/106 167/101/101 159/105/105
f 159/105/105 167/101/101 165/102/102
f 159/105/105 165/102/102 171/104/104
f 171/104/104 165/102/102 173/103/103
f 177/99/99 175/100/100 167/101/101
f 143/107/107 111/240/240 151/106/106
f 151/106/106 111/240/240 119/241/241
f 151/106/106 119/241/241 125/229/229
f 143/107/107 141/108/108 111/240/240
f 111/240/240 141/108/108 103/239/239
f 103/239/239 141/108/108 137/109/109
f 103/239/239 137/109/109 133/110/110
f 59/111/111 63/135/135 133/110/110
f 133/110/110 63/135/135 93/238/238
f 133/110/110 93/238/238 103/239/239
f 49/112/112 37/116/116 59/111/111
f 59/111/111 37/116/116 35/117/117
f 59/111/111 35/117/117 27/134/134
f 27/134/134 35/117/117 33/118/118
f 27/134/134 33/118/118 31/119/119
f 37/116/116 49/112/112 39/115/115
f 39/115/115 49/112/112 43/113/113
f 39/115/115 43/113/113 41/114/114
f 31/119/119 29/120/120 27/134/134
f 27/134/134 29/120/120 25/133/133
f 25/133/133 29/120/120 21/121/121
f 25/133/133 21/121/121 23/132/132
f 23/132/132 21/121/121 19/131/131
f 19/131/131 21/121/121 17/130/130
f 17/130/130 21/121/121 15/122/122
f 17/130/130 15/122/122 13/129/129
f 13/129/129 15/122/122 11/128/128
f 11/128/128 15/122/122 9/123/123
f 11/128/128 9/123/123 7/127/127
f 7/127/127 9/123/123 5/126/126
f 5/126/126 9/123/123 3/125/125
f 3/125/125 9/123/123 1/124/124
f 27/134/134 63/135/135 59/111/111
f 57/136/136 77/236/236 63/135/135
f 63/135/135 77/236/236 83/237/237
f 63/135/135 83/237/237 93/238/238
f 57/136/136 53/137/137 77/236/236
f 77/236/236 53/137/137 79/235/235
f 79/235/235 53/137/137 47/138/138
f 79/235/235 47/138/138 45/139/139
f 45/139/139 51/140/140 79/235/235
f 79/235/235 51/140/140 85/234/234
f 85/234/234 51/140/140 55/141/141
f 85/234/234 55/141/141 61/142/142
f 61/142/142 65/143/143 85/234/234
f 85/234/234 65/143/143 95/233/233
f 95/233/233 65/143/143 67/144/144
f 95/233/233 67/144/144 69/145/145
f 69/145/145 71/146/146 95/233/233
f 95/233/233 71/146/146 105/232/232
f 105/232/232 71/146/146 75/147/147
f 105/232/232 75/147/147 81/148/148
f 105/232/232 81/148/148 113/231/231
f 113/231/231 81/148/148 91/149/149
f 113/231/231 91/149/149 101/150/150
f 101/150/150 117/151/151 113/231/231
f 113/231/231 117/151/151 121/230/230
f 121/230/230 117/151/151 131/152/152
f 121/230/230 131/152/152 147/167/167
f 147/167/167 131/152/152 145/166/166
f 145/166/166 131/152/152 129/153/153
f 145/166/166 129/153/153 127/154/154
f 127/154/154 123/155/155 145/166/166
f 145/166/166 123/155/155 139/165/165
f 139/165/165 123/155/155 115/156/156
f 139/165/165 115/156/156 109/157/157
f 139/165/165 109/157/157 135/164/164
f 135/164/164 109/157/157 99/158/158
f 135/164/164 99/158/158 107/163/163
f 107/163/163 99/158/158 89/159/159
f 107/163/163 89/159/159 97/162/162
f 97/162/162 89/159/159 73/160/160
f 97/162/162 73/160/160 87/161/161
f 247/182/182 249/183/183 219/219/219
f 219/219/219 249/183/183 253/184/184
f 219/219/219 253/184/184 227/218/218
f 227/218/218 253/184/184 255/185/185
f 227/218/218 255/185/185 259/186/186
f 259/186/186 261/187/187 227/218/218
f 227/218/218 261/187/187 263/188/188
f 227/218/218 263/188/188 267/189/189
f 269/190/190 265/205/205 267/189/189
f 267/189/189 265/205/205 257/206/206
f 267/189/189 257/206/206 227/218/218
f 227/218/218 257/206/206 251/207/207
f 227/218/218 251/207/207 245/208/208
f 269/190/190 273/191/191 265/205/205
f 265/205/205 273/191/191 275/192/192
f 265/205/205 275/192/192 271/204/204
f 271/204/204 275/192/192 277/193/193
f 271/204/204 277/193/193 283/194/194
f 271/204/204 283/194/194 279/203/203
f 279/203/203 283/194/194 287/195/195
f 279/203/203 287/195/195 281/202/202
f 281/202/202 287/195/195 285/201/201
f 285/201/201 287/195/195 291/196/196
f 285/201/201 291/196/196 289/200/200
f 289/200/200 291/196/196 293/199/199
f 293/199/199 291/196/196 295/197/197
f 293/199/199 295/197/197 297/198/198
f 245/208/208 241/209/209 227/218/218
f 227/218/218 241/209/209 231/216/216
f 227/218/218 231/216/216 225/217/217
f 241/209/209 239/210/210 231/216/216
f 231/216/216 239/210/210 229/215/215
f 229/215/215 239/210/210 237/211/211
f 229/215/215 237/211/211 235/212/212
f 235/212/212 221/213/213 229/215/215
f 229/215/215 221/213/213 223/214/214
f 219/219/219 217/220/220 211/221/221
f 205/226/226 201/227/227 207/225/225
f 207/225/225 201/227/227 203/228/228
f 125/229/229 121/230/230 147/167/167
f 214/243/243 208/244/244 213/242/242
f 213/242/242 208/244/244 207/245/245
f 202/246/246 204/247/247 201/249/249
f 201/249/249 204/247/247 203/248/248
f 206/250/250 202/251/251 205/253/253
f 205/253/253 202/251/251 201/252/252
f 208/254/254 206/255/255 207/257/257
f 207/257/257 206/255/255 205/256/256
f 221/259/259 235/260/260 222/258/258
f 222/258/258 235/260/260 236/261/261
f 183/263/263 203/264/264 184/262/262
f 184/262/262 203/264/264 204/265/265
f 119/267/267 120/291/291 125/266/266
f 125/266/266 120/291/291 126/292/292
f 125/293/293 126/279/279 121/278/278
f 121/278/278 126/279/279 122/280/280
f 121/278/278 122/280/280 113/277/277
f 113/277/277 122/280/280 114/281/281
f 113/277/277 114/281/281 105/276/276
f 105/276/276 114/281/281 106/282/282
f 105/276/276 106/282/282 95/275/275
f 95/275/275 106/282/282 96/283/283
f 95/275/275 96/283/283 85/274/274
f 85/274/274 96/283/283 86/284/284
f 85/274/274 86/284/284 79/273/273
f 79/273/273 86/284/284 80/285/285
f 79/273/273 80/285/285 77/272/272
f 77/272/272 80/285/285 78/286/286
f 77/272/272 78/286/286 83/271/271
f 83/271/271 78/286/286 84/287/287
f 83/271/271 84/287/287 93/270/270
f 93/270/270 84/287/287 94/288/288
f 93/270/270 94/288/288 103/269/269
f 103/269/269 94/288/288 104/289/289
f 103/269/269 104/289/289 111/268/268
f 111/268/268 104/289/289 112/290/290
f 111/268/268 112/290/290 119/267/267
f 119/267/267 112/290/290 120/291/291
f 151/294/294 159/295/295 152/297/297
f 152/297/297 159/295/295 160/296/296
f 133/298/298 137/299/299 134/307/307
f 134/307/307 137/299/299 138/306/306
f 138/306/306 137/299/299 141/300/300
f 138/306/306 141/300/300 142/305/305
f 142/305/305 141/300/300 143/301/301
f 142/305/305 143/301/301 144/304/304
f 144/304/304 143/301/301 151/302/302
f 144/304/304 151/302/302 152/303/303
f 59/308/308 133/309/309 60/311/311
f 60/311/311 133/309/309 134/310/310
f 29/312/312 31/313/313 30/331/331
f 30/331/331 31/313/313 32/330/330
f 32/330/330 31/313/313 33/314/314
f 32/330/330 33/314/314 34/329/329
f 34/329/329 33/314/314 35/315/315
f 34/329/329 35/315/315 36/328/328
f 36/328/328 35/315/315 37/316/316
f 36/328/328 37/316/316 38/327/327
f 38/327/327 37/316/316 39/317/317
f 38/327/327 39/317/317 40/326/326
f 40/326/326 39/317/317 41/318/318
f 40/326/326 41/318/318 42/325/325
f 42/325/325 41/318/318 43/319/319
f 42/325/325 43/319/319 44/324/324
f 44/324/324 43/319/319 49/320/320
f 44/324/324 49/320/320 50/323/323
f 50/323/323 49/320/320 59/321/321
f 50/323/323 59/321/321 60/322/322
f 1/332/332 9/333/333 2/341/341
f 2/341/341 9/333/333 10/340/340
f 10/340/340 9/333/333 15/334/334
f 10/340/340 15/334/334 16/339/339
f 16/339/339 15/334/334 21/335/335
f 16/339/339 21/335/335 22/338/338
f 22/338/338 21/335/335 29/336/336
f 22/338/338 29/336/336 30/337/337
f 27/342/342 25/343/343 28/363/363
f 28/363/363 25/343/343 26/362/362
f 26/362/362 25/343/343 23/344/344
f 26/362/362 23/344/344 24/361/361
f 24/361/361 23/344/344 19/345/345
f 24/361/361 19/345/345 20/360/360
f 20/360/360 19/345/345 17/346/346
f 20/360/360 17/346/346 18/359/359
f 18/359/359 17/346/346 13/347/347
f 18/359/359 13/347/347 14/358/358
f 14/358/358 13/347/347 11/348/348
f 14/358/358 11/348/348 12/357/357
f 12/357/357 11/348/348 7/349/349
f 12/357/357 7/349/349 8/356/356
f 8/356/356 7/349/349 5/350/350
f 8/356/356 5/350/350 6/355/355
f 6/355/355 5/350/350 3/351/351
f 6/355/355 3/351/351 4/354/354
f 4/354/354 3/351/351 1/352/352
f 4/354/354 1/352/352 2/353/353
f 63/364/364 27/365/365 64/367/367
f 64/367/367 27/365/365 28/366/366
f 131/368/368 117/369/369 132/403/403
f 132/403/403 117/369/369 118/402/402
f 118/402/402 117/369/369 101/370/370
f 118/402/402 101/370/370 102/401/401
f 102/401/401 101/370/370 91/371/371
f 102/401/401 91/371/371 92/400/400
f 92/400/400 91/371/371 81/372/372
f 92/400/400 81/372/372 82/399/399
f 82/399/399 81/372/372 75/373/373
f 82/399/399 75/373/373 76/398/398
f 76/398/398 75/373/373 71/374/374
f 76/398/398 71/374/374 72/397/397
f 72/397/397 71/374/374 69/375/375
f 72/397/397 69/375/375 70/396/396
f 70/396/396 69/375/375 67/376/376
f 70/396/396 67/376/376 68/395/395
f 68/395/395 67/376/376 65/377/377
f 68/395/395 65/377/377 66/394/394
f 66/394/394 65/377/377 61/378/378
f 66/394/394 61/378/378 62/393/393
f 62/393/393 61/378/378 55/379/379
f 62/393/393 55/379/379 56/392/392
f 56/392/392 55/379/379 51/380/380
f 56/392/392 51/380/380 52/391/391
f 52/391/391 51/380/380 45/381/381
f 52/391/391 45/381/381 46/390/390
f 46/390/390 45/381/381 47/382/382
f 46/390/390 47/382/382 48/389/389
f 48/389/389 47/382/382 53/383/383
f 48/389/389 53/383/383 54/388/388
f 54/388/388 53/383/383 57/384/384
f 54/388/388 57/384/384 58/387/387
f 58/387/387 57/384/384 63/385/385
f 58/387/387 63/385/385 64/386/386
f 73/404/404 89/405/405 74/421/421
f 74/421/421 89/405/405 90/420/420
f 90/420/420 89/405/405 99/406/406
f 90/420/420 99/406/406 100/419/419
f 100/419/419 99/406/406 109/407/407
f 100/419/419 109/407/407 110/418/418
f 110/418/418 109/407/407 115/408/408
f 110/418/418 115/408/408 116/417/417
f 116/417/417 115/408/408 123/409/409
f 116/417/417 123/409/409 124/416/416
f 124/416/416 123/409/409 127/410/410
f 124/416/416 127/410/410 128/415/415
f 128/415/415 127/410/410 129/411/411
f 128/415/415 129/411/411 130/414/414
f 130/414/414 129/411/411 131/412/412
f 130/414/414 131/412/412 132/413/413
f 87/422/422 73/423/423 88/425/425
f 88/425/425 73/423/423 74/424/424
f 145/426/426 139/427/427 146/437/437
f 146/437/437 139/427/427 140/436/436
f 140/436/436 139/427/427 135/428/428
f 140/436/436 135/428/428 136/435/435
f 136/435/435 135/428/428 107/429/429
f 136/435/435 107/429/429 108/434/434
f 108/434/434 107/429/429 97/430/430
f 108/434/434 97/430/430 98/433/433
f 98/433/433 97/430/430 87/431/431
f 98/433/433 87/431/431 88/432/432
f 147/438/438 145/439/439 148/441/441
f 148/441/441 145/439/439 146/440/440
f 149/442/442 147/443/443 150/445/445
f 150/445/445 147/443/443 148/444/444
f 153/446/446 149/447/447 154/449/449
f 154/449/449 149/447/447 150/448/448
f 199/450/450 193/451/451 200/471/471
f 200/471/471 193/451/451 194/470/470
f 194/470/470 193/451/451 191/452/452
f 194/470/470 191/452/452 192/469/469
f 192/469/469 191/452/452 181/453/453
f 192/469/469 181/453/453 182/468/468
f 182/468/468 181/453/453 179/454/454
f 182/468/468 179/454/454 180/467/467
f 180/467/467 179/454/454 169/455/455
f 180/467/467 169/455/455 170/466/466
f 170/466/466 169/455/455 163/456/456
f 170/466/466 163/456/456 164/465/465
f 164/465/465 163/456/456 161/457/457
f 164/465/465 161/457/457 162/464/464
f 162/464/464 161/457/457 157/458/458
f 162/464/464 157/458/458 158/463/463
f 158/463/463 157/458/458 155/459/459
f 158/463/463 155/459/459 156/462/462
f 156/462/462 155/459/459 153/460/460
f 156/462/462 153/460/460 154/461/461
f 233/472/472 199/473/473 234/475/475
f 234/475/475 199/473/473 200/474/474
f 243/476/476 233/477/477 244/479/479
f 244/479/479 233/477/477 234/478/478
f 267/480/480 263/481/481 268/497/497
f 268/497/497 263/481/481 264/496/496
f 264/496/496 263/481/481 261/482/482
f 264/496/496 261/482/482 262/495/495
f 262/495/495 261/482/482 259/483/483
f 262/495/495 259/483/483 260/494/494
f 260/494/494 259/483/483 255/484/484
f 260/494/494 255/484/484 256/493/493
f 256/493/493 255/484/484 253/485/485
f 256/493/493 253/485/485 254/492/492
f 254/492/492 253/485/485 249/486/486
f 254/492/492 249/486/486 250/491/491
f 250/491/491 249/486/486 247/487/487
f 250/491/491 247/487/487 248/490/490
f 248/490/490 247/487/487 243/488/488
f 248/490/490 243/488/488 244/489/489
f 235/498/498 237/499/499 236/545/545
f 236/545/545 237/499/499 238/544/544
f 238/544/544 237/499/499 239/500/500
f 238/544/544 239/500/500 240/543/543
f 240/543/543 239/500/500 241/501/501
f 240/543/543 241/501/501 242/542/542
f 242/542/542 241/501/501 245/502/502
f 242/542/542 245/502/502 246/541/541
f 246/541/541 245/502/502 251/503/503
f 246/541/541 251/503/503 252/540/540
f 252/540/540 251/503/503 257/504/504
f 252/540/540 257/504/504 258/539/539
f 258/539/539 257/504/504 265/505/505
f 258/539/539 265/505/505 266/538/538
f 266/538/538 265/505/505 271/506/506
f 266/538/538 271/506/506 272/537/537
f 272/537/537 271/506/506 279/507/507
f 272/537/537 279/507/507 280/536/536
f 280/536/536 279/507/507 281/508/508
f 280/536/536 281/508/508 282/535/535
f 282/535/535 281/508/508 285/509/509
f 282/535/535 285/509/509 286/534/534
f 286/534/534 285/509/509 289/510/510
f 286/534/534 289/510/510 290/533/533
f 290/533/533 289/510/510 293/511/511
f 290/533/533 293/511/511 294/532/532
f 294/532/532 293/511/511 297/512/512
f 294/532/532 297/512/512 298/531/531
f 298/531/531 297/512/512 295/513/513
f 298/531/531 295/513/513 296/530/530
f 296/530/530 295/513/513 291/514/514
f 296/530/530 291/514/514 292/529/529
f 292/529/529 291/514/514 287/515/515
f 292/529/529 287/515/515 288/528/528
f 288/528/528 287/515/515 283/516/516
f 288/528/528 283/516/516 284/527/527
f 284/527/527 283/516/516 277/517/517
f 284/527/527 277/517/517 278/526/526
f 278/526/526 277/517/517 275/518/518
f 278/526/526 275/518/518 276/525/525
f 276/525/525 275/518/518 273/519/519
f 276/525/525 273/519/519 274/524/524
f 274/524/524 273/519/519 269/520/520
f 274/524/524 269/520/520 270/523/523
f 270/523/523 269/520/520 267/521/521
f 270/523/523 267/521/521 268/522/522
f 186/546/546 184/547/547 196/681/681
f 196/681/681 184/547/547 204/548/548
f 196/681/681 204/548/548 208/551/551
f 208/551/551 204/548/548 206/550/550
f 206/550/550 204/548/548 202/549/549
f 196/681/681 208/551/551 210/554/554
f 210/554/554 208/551/551 214/552/552
f 210/554/554 214/552/552 216/553/553
f 196/681/681 210/554/554 198/680/680
f 198/680/680 210/554/554 212/555/555
f 198/680/680 212/555/555 190/678/678
f 190/678/678 212/555/555 220/557/557
f 190/678/678 220/557/557 248/594/594
f 248/594/594 220/557/557 250/593/593
f 250/593/593 220/557/557 254/592/592
f 254/592/592 220/557/557 228/558/558
f 254/592/592 228/558/558 256/591/591
f 256/591/591 228/558/558 260/590/590
f 260/590/590 228/558/558 262/589/589
f 262/589/589 228/558/558 264/588/588
f 264/588/588 228/558/558 268/587/587
f 268/587/587 228/558/558 258/570/570
f 268/587/587 258/570/570 266/571/571
f 212/555/555 218/556/556 220/557/557
f 226/559/559 232/560/560 228/558/558
f 228/558/558 232/560/560 242/567/567
f 228/558/558 242/567/567 246/568/568
f 242/567/567 232/560/560 240/566/566
f 240/566/566 232/560/560 230/561/561
f 240/566/566 230/561/561 238/565/565
f 238/565/565 230/561/561 236/564/564
f 236/564/564 230/561/561 222/563/563
f 222/563/563 230/561/561 224/562/562
f 246/568/568 252/569/569 228/558/558
f 228/558/558 252/569/569 258/570/570
f 272/572/572 276/584/584 266/571/571
f 266/571/571 276/584/584 274/585/585
f 266/571/571 274/585/585 270/586/586
f 280/573/573 284/582/582 272/572/572
f 272/572/572 284/582/582 278/583/583
f 272/572/572 278/583/583 276/584/584
f 284/582/582 280/573/573 288/581/581
f 288/581/581 280/573/573 282/574/574
f 288/581/581 282/574/574 286/575/575
f 288/581/581 286/575/575 292/580/580
f 292/580/580 286/575/575 290/576/576
f 292/580/580 290/576/576 294/577/577
f 298/578/578 296/579/579 294/577/577
f 294/577/577 296/579/579 292/580/580
f 270/586/586 268/587/587 266/571/571
f 190/678/678 248/594/594 152/670/670
f 152/670/670 248/594/594 244/595/595
f 152/670/670 244/595/595 126/682/682
f 126/682/682 244/595/595 234/596/596
f 126/682/682 234/596/596 200/597/597
f 126/682/682 200/597/597 148/609/609
f 148/609/609 200/597/597 194/598/598
f 148/609/609 194/598/598 192/599/599
f 192/599/599 182/600/600 148/609/609
f 148/609/609 182/600/600 180/601/601
f 148/609/609 180/601/601 170/602/602
f 170/602/602 164/603/603 148/609/609
f 148/609/609 164/603/603 150/608/608
f 150/608/608 164/603/603 162/604/604
f 150/608/608 162/604/604 158/605/605
f 158/605/605 156/606/606 150/608/608
f 150/608/608 156/606/606 154/607/607
f 146/610/610 132/624/624 148/609/609
f 148/609/609 132/624/624 122/694/694
f 148/609/609 122/694/694 126/682/682
f 140/611/611 124/621/621 146/610/610
f 146/610/610 124/621/621 128/622/622
f 146/610/610 128/622/622 130/623/623
f 136/612/612 110/619/619 140/611/611
f 140/611/611 110/619/619 116/620/620
f 140/611/611 116/620/620 124/621/621
f 110/619/619 136/612/612 100/618/618
f 100/618/618 136/612/612 108/613/613
f 100/618/618 108/613/613 90/617/617
f 90/617/617 108/613/613 98/614/614
f 90/617/617 98/614/614 74/616/616
f 74/616/616 98/614/614 88/615/615
f 130/623/623 132/624/624 146/610/610
f 132/624/624 118/625/625 122/694/694
f 122/694/694 118/625/625 114/693/693
f 114/693/693 118/625/625 102/626/626
f 114/693/693 102/626/626 92/627/627
f 92/627/627 82/628/628 114/693/693
f 114/693/693 82/628/628 106/692/692
f 106/692/692 82/628/628 76/629/629
f 106/692/692 76/629/629 72/630/630
f 106/692/692 72/630/630 96/691/691
f 96/691/691 72/630/630 70/631/631
f 96/691/691 70/631/631 68/632/632
f 68/632/632 66/633/633 96/691/691
f 96/691/691 66/633/633 86/690/690
f 86/690/690 66/633/633 62/634/634
f 86/690/690 62/634/634 56/635/635
f 56/635/635 52/636/636 86/690/690
f 86/690/690 52/636/636 80/689/689
f 80/689/689 52/636/636 46/637/637
f 80/689/689 46/637/637 48/638/638
f 48/638/638 54/639/639 80/689/689
f 80/689/689 54/639/639 78/688/688
f 78/688/688 54/639/639 58/640/640
f 78/688/688 58/640/640 64/641/641
f 28/642/642 60/665/665 64/641/641
f 64/641/641 60/665/665 134/666/666
f 64/641/641 134/666/666 94/686/686
f 94/686/686 134/666/666 104/685/685
f 104/685/685 134/666/666 138/667/667
f 104/685/685 138/667/667 142/668/668
f 26/643/643 30/656/656 28/642/642
f 28/642/642 30/656/656 32/657/657
f 28/642/642 32/657/657 34/658/658
f 30/656/656 26/643/643 22/655/655
f 22/655/655 26/643/643 24/644/644
f 22/655/655 24/644/644 20/645/645
f 20/645/645 18/646/646 22/655/655
f 22/655/655 18/646/646 16/654/654
f 16/654/654 18/646/646 14/647/647
f 16/654/654 14/647/647 12/648/648
f 16/654/654 12/648/648 10/653/653
f 10/653/653 12/648/648 8/649/649
f 10/653/653 8/649/649 6/650/650
f 6/650/650 4/651/651 10/653/653
f 10/653/653 4/651/651 2/652/652
f 34/658/658 36/659/659 28/642/642
f 28/642/642 36/659/659 60/665/665
f 36/659/659 38/660/660 60/665/665
f 60/665/665 38/660/660 50/664/664
f 50/664/664 38/660/660 40/661/661
f 50/664/664 40/661/661 44/663/663
f 44/663/663 40/661/661 42/662/662
f 104/685/685 142/668/668 112/684/684
f 112/684/684 142/668/668 144/669/669
f 112/684/684 144/669/669 152/670/670
f 160/671/671 168/675/675 152/670/670
f 152/670/670 168/675/675 178/677/677
f 152/670/670 178/677/677 190/678/678
f 168/675/675 160/671/671 166/674/674
f 166/674/674 160/671/671 172/672/672
f 166/674/674 172/672/672 174/673/673
f 168/675/675 176/676/676 178/677/677
f 190/678/678 188/679/679 198/680/680
f 126/682/682 120/683/683 152/670/670
f 152/670/670 120/683/683 112/684/684
f 94/686/686 84/687/687 64/641/641
f 64/641/641 84/687/687 78/688/688
# 298 vertices
# 694 texture params
# 694 normals
# 596 facets

# 1 groups
